<?xml version="1.0" encoding="utf-8"?>
<!-- Generator: Adobe Illustrator 27.2.0, SVG Export Plug-In . SVG Version: 6.00 Build 0)  -->
<svg version="1.1" id="Layer_1" xmlns="http://www.w3.org/2000/svg" xmlns:xlink="http://www.w3.org/1999/xlink" x="0px" y="0px"
	 viewBox="0 0 114.2 28" style="enable-background:new 0 0 114.2 28;" xml:space="preserve">
<style type="text/css">
	.st0{clip-path:url(#SVGID_00000054234975666577602150000018226208409986739124_);}
	.st1{fill:#1D9ADD;}
	.st2{fill:#003764;}
</style>
<g>
	<defs>
		<rect id="SVGID_1_" width="114.2" height="28"/>
	</defs>
	<clipPath id="SVGID_00000098905902198674317960000004570875926981918895_">
		<use xlink:href="#SVGID_1_"  style="overflow:visible;"/>
	</clipPath>
	<g style="clip-path:url(#SVGID_00000098905902198674317960000004570875926981918895_);">
		<path class="st1" d="M5.6,22.4V11.3H0V28h16.7v-5.6H5.6z"/>
		<path class="st2" d="M27.9,0.1H0v8.4h5.6V5.7h16.7v16.7h-2.8V28h8.3V0.1z"/>
		<path class="st2" d="M33.5,0h8.6v20.8h12.4V28h-21V0z"/>
		<path class="st2" d="M60,0h21.6v7.2h-13v3.5h11.2v6.7H68.6V28H60L60,0L60,0z"/>
		<path class="st1" d="M94.3,13.1l-9.2-13h10.1l4.2,7.6l4.1-7.6h9.5l-8.9,13.1l9.9,14.7h-10.3L99,19.7L94.1,28h-9.8L94.3,13.1
			L94.3,13.1z"/>
	</g>
</g>
</svg>
