<?xml version="1.0" encoding="UTF-8" standalone="no"?>
<!-- Created with Inkscape (http://www.inkscape.org/) -->

<svg
   width="221.75894mm"
   height="35.600445mm"
   viewBox="0 0 221.75894 35.600445"
   version="1.1"
   id="svg1"
   xml:space="preserve"
   xmlns="http://www.w3.org/2000/svg"
   xmlns:svg="http://www.w3.org/2000/svg"><defs
     id="defs1" /><g
     id="layer14"
     style="display:inline"
     transform="translate(-1805.4333,-287.05436)"><path
       style="fill:#000000;stroke-width:1.84453"
       d="m 2027.0992,305.16946 c 0.2986,-1.91078 -0.2023,-3.5865 -0.3761,-3.6724 -0.3365,-0.1684 -146.7063,-0.67503 -158.2955,-0.65493 l -6.0802,0.093 c -4.3191,0.066 -12.1708,0.025 -17.4471,0.071 l -9.5933,0.086 0.034,-6.6125 c 0.032,-6.0734 -0.2018,-7.6446 -1.0984,-7.4016 -0.1643,0.044 -3.4703,1.9366 -7.3461,4.2042 -3.8758,2.2677 -10.3039,6.0003 -14.2847,8.2944 -8.8328,5.0908 -8.6024,4.6821 -4.2082,7.4655 1.6554,1.0487 4.4727,2.7926 6.2607,3.8753 1.7879,1.0827 6.7886,4.1521 11.1123,6.8209 4.3239,2.669 8.0837,4.8788 8.3551,4.9109 0.2712,0.033 0.6217,-0.084 0.7783,-0.2569 0.1565,-0.1742 0.2909,-3.2074 0.2988,-6.7419 l 0.014,-6.4266 h 7.4228 c 4.0825,0 10.5823,-0.019 14.4439,-0.027 3.8617,-0.019 152.8255,0.43943 156.6682,0.44143 16.8305,0.019 12.7085,-0.1808 13.0436,-0.553 0.1967,-0.2179 0,-2.00151 0.2974,-3.9126 z m -3.7985,2.1004 c -11.6339,-0.208 -156.9406,-0.43643 -168.5775,-0.42543 -11.608,0.019 -21.2648,0.1953 -21.4595,0.4112 -0.1948,0.216 -0.3176,2.3307 -0.2731,4.6993 0.044,2.3687 0.019,5.0161 -0.057,5.883 l -0.1375,1.5763 -2.8518,-1.8103 c -1.5685,-0.9955 -6.882,-4.2897 -11.8078,-7.3201 -4.9259,-3.0304 -8.9572,-5.5956 -8.9588,-5.7005 -10e-4,-0.1052 3.9565,-2.4914 8.7954,-5.3035 4.8391,-2.8123 10.0854,-5.8853 11.6587,-6.8293 1.5732,-0.9438 3.0185,-1.7208 3.2117,-1.7269 0.1933,0 0.3124,2.7107 0.2648,6.0369 -0.048,3.3263 0.047,6.187 0.2094,6.3569 0.1629,0.1703 5.4883,0.2809 11.8344,0.2466 17.2431,-0.094 169.8502,0.33813 170.3916,0.37643 6.0957,0 3.1939,-0.1758 9.2894,-0.2378 l 0.047,1.6492 c 0.057,1.98749 -0.1636,2.2831 -1.5797,2.1201 z"
       id="path42-6-7" /></g></svg>
