<?xml version="1.0" encoding="UTF-8" standalone="no"?>
<!-- Created with Inkscape (http://www.inkscape.org/) -->

<svg
   width="35.60041mm"
   height="79.013863mm"
   viewBox="0 0 35.60041 79.013863"
   version="1.1"
   id="svg1"
   xml:space="preserve"
   xmlns="http://www.w3.org/2000/svg"
   xmlns:svg="http://www.w3.org/2000/svg"><defs
     id="defs1" /><g
     id="layer14"
     style="display:inline"
     transform="translate(-1135.6117,-155.4463)"><path
       style="fill:#000000;stroke-width:1.84453"
       d="m 1153.2644,234.45191 c -1.9331,0.058 -3.5865,-0.20232 -3.6724,-0.37614 -0.1684,-0.33647 -0.2126,-4.04606 -0.1925,-15.63528 l 0.093,-6.0802 c 0.066,-4.31915 0.025,-12.17082 0.071,-17.44715 l 0.086,-9.59329 -6.6125,0.0342 c -6.0734,0.0315 -7.6447,-0.20179 -7.4016,-1.09839 0.044,-0.16431 1.9366,-3.47031 4.2042,-7.3461 2.2677,-3.87577 6.0002,-10.30388 8.2944,-14.28465 5.0907,-8.83285 4.6821,-8.60248 7.4655,-4.20825 1.0487,1.65538 2.7926,4.47274 3.8752,6.26074 1.0827,1.78791 4.1521,6.78856 6.8209,11.11228 2.6691,4.32386 4.8788,8.08372 4.9109,8.35514 0.033,0.27119 -0.084,0.6217 -0.2569,0.77822 -0.1742,0.15649 -3.2074,0.29095 -6.7419,0.29884 l -6.4266,0.0142 v 7.42278 c 0,4.0825 -0.019,10.58231 -0.027,14.44392 -0.019,3.86174 -0.023,10.16529 -0.021,14.00796 0.019,16.83053 -0.1808,12.70853 -0.553,13.04365 -0.2179,0.19664 -1.979,0.23943 -3.9126,0.29743 z m 2.1004,-3.79854 c -0.2081,-11.63393 0.026,-14.28036 0.037,-25.9173 0.019,-11.60803 0.1953,-21.26479 0.4112,-21.45946 0.216,-0.19481 2.3307,-0.31763 4.6993,-0.27314 2.3687,0.0445 5.0161,0.019 5.883,-0.0566 l 1.5763,-0.13746 -1.8104,-2.85184 c -0.9954,-1.56853 -4.2897,-6.882 -7.32,-11.80784 -3.0305,-4.92582 -5.5957,-8.9572 -5.7005,-8.95873 -0.1052,-0.001 -2.4914,3.9565 -5.3035,8.79541 -2.8123,4.83903 -5.8853,10.08532 -6.8293,11.65865 -0.9438,1.57322 -1.7208,3.01853 -1.7269,3.21172 0,0.19334 2.7107,0.31239 6.0369,0.26482 3.3263,-0.0476 6.187,0.0466 6.3569,0.2094 0.1703,0.16289 0.2809,5.48829 0.2466,11.83434 -0.094,17.24311 -0.1243,27.19002 -0.086,27.73141 0,6.09571 -0.1758,3.19395 -0.2378,9.28941 l 1.6492,0.0469 c 1.9875,0.0565 2.2831,-0.1636 2.1201,-1.57971 z"
       id="path42-6-5" /></g></svg>
