<?xml version="1.0" encoding="UTF-8" standalone="no"?>
<!-- Created with Inkscape (http://www.inkscape.org/) -->

<svg
   width="82.32711mm"
   height="84.978188mm"
   viewBox="0 0 82.327111 84.978188"
   version="1.1"
   id="svg1"
   xml:space="preserve"
   xmlns="http://www.w3.org/2000/svg"
   xmlns:svg="http://www.w3.org/2000/svg"><defs
     id="defs1" /><g
     id="layer14"
     style="display:inline"
     transform="translate(-1440.1844,-160.55061)"><g
       id="g161"
       transform="translate(-233.15564,70.424913)"><path
         style="fill:none;stroke-width:0.395269"
         d="m 1680.3002,154.79667 c 0.3454,-8.82587 2.275,-16.44172 6.1589,-24.30897 4.3031,-8.71622 10.5288,-16.144 18.7197,-22.33401 2.1565,-1.62972 3.9939,-3.18367 4.0831,-3.45318 0.089,-0.26953 -1.3152,-2.03261 -3.1207,-3.91792 l -3.2828,-3.427894 12.0116,-2.70423 c 6.6063,-1.48733 12.1085,-2.60723 12.2271,-2.4887 0.1814,0.18148 -4.9352,18.644214 -5.948,21.462344 -0.3168,0.88138 -0.4963,0.76872 -3.9372,-2.47041 -2.3438,-2.20628 -3.9194,-3.39392 -4.5027,-3.39392 -2.8148,0 -13.681,9.64028 -19.0918,16.93775 -6.3147,8.51662 -11.1079,20.03116 -12.8966,30.98102 l -0.5985,3.66368 z"
         id="path12-4-1" /><path
         style="fill:none;stroke-width:0.395269"
         d="m 1678.2588,154.76417 c 0.3454,-8.82587 2.275,-16.44173 6.1589,-24.30898 4.3031,-8.71622 10.5288,-16.144 18.7197,-22.33401 2.1565,-1.62972 3.9939,-3.18367 4.0831,-3.45318 0.089,-0.26953 -1.3152,-2.03261 -3.1207,-3.91792 l -3.2828,-3.427887 12.0116,-2.70423 c 6.6063,-1.48733 12.1085,-2.60723 12.2271,-2.4887 0.1814,0.18148 -4.9352,18.644207 -5.948,21.462337 -0.3168,0.88138 -0.4963,0.76872 -3.9372,-2.47041 -2.3438,-2.20628 -3.9194,-3.39392 -4.5027,-3.39392 -2.8148,0 -13.681,9.64028 -19.0918,16.93775 -6.3147,8.51662 -11.1079,20.03117 -12.8966,30.98103 l -0.5985,3.66368 z"
         id="path12-4-7-5" /><path
         id="path27-0-5-1"
         style="fill:#000000;stroke-width:4.9381"
         d="m 1696.9022,145.28823 c -1.0779,0.0394 -2.0222,1.90488 -2.1078,4.51815 -0.2785,2.37106 1.0678,2.27802 1.6629,3.02203 2.3801,1.55578 4.9674,0.95897 7.3443,0.585 1.3711,-0.53732 2.3111,-5.74 0.7865,-7.31492 -2.393,-1.1506 -4.9125,-0.69997 -7.3476,-0.76255 -0.1137,-0.0362 -0.2269,-0.0518 -0.3383,-0.0477 z m 4.5532,2.61142 c 0.6852,0.0321 0.7809,-0.14298 0.9887,0.47227 0.1689,0.49996 0.049,1.03872 -0.1236,1.5329 -0.1,0.28539 0.1285,1.52848 0,1.651 -0.6814,0.0996 -1.2399,-0.21924 -1.854,-0.23551 -0.9075,0 -1.4536,0.21955 -2.3139,0.0144 -0.7174,0.0699 -0.9043,-0.5187 -0.6514,-1.07554 0.021,-0.468 0.2198,-0.64903 0.1238,-1.17939 -0.058,-0.46425 0.068,-0.76497 0.2967,-1.02109 0.284,-0.12685 2.3282,-0.15897 3.5337,-0.15897 z" /><path
         style="fill:#000000;stroke-width:2.48309"
         d="m 1750.3727,148.11341 c -12.6581,0.058 -25.3196,-0.0599 -37.9775,0.0938 -1.0625,0.10708 -2.208,0.0249 -3.2023,0.45161 -0.6883,0.75111 -0.1335,2.23571 0.8416,2.05551 5.7149,0.3843 11.4466,0.41094 17.1706,0.49358 7.4221,0.031 14.8489,0.0501 22.2666,-0.26463 0.8485,-0.0701 2.172,-0.0647 2.255,-1.37375 -0.1013,-0.65198 -0.63,-1.29321 -1.1706,-1.48954 l -0.1124,0.0204 z"
         id="path26-5-1-3" /><path
         id="path25-6-6-6"
         style="fill:#000000;stroke-width:5.02327"
         d="m 1700.0857,132.45437 c -0.5502,-0.0105 -1.0978,0.0105 -1.6343,0.0147 -1.4479,-0.085 -3.6658,0.89958 -3.648,5.39254 0.019,2.62699 1.1617,2.95096 1.9971,2.87811 2.5499,0.47499 5.2216,1.35322 7.7072,-0.31909 0.7365,-1.14417 1.6043,-4.59028 0.3556,-5.64282 -1.4554,-1.9687 -3.1271,-2.29153 -4.7776,-2.32359 z m 1.2042,2.73419 c 0.1199,-0.0229 0.4106,0.0588 0.4166,0.0883 0.028,0.15243 0.2193,1.11403 0.1211,1.39682 -0.382,0.32846 0.1062,1.66567 -0.371,1.8871 v 7.9e-4 c -4e-4,2.8e-4 0,0.001 0,0.001 -0.049,0.0324 -0.5521,-0.003 -0.6152,-0.003 -0.1174,0 -0.6669,-0.0713 -0.7413,0 -0.5435,0.53164 -2.2169,0.13067 -2.2234,0.11802 -0.078,-0.14882 -0.2063,-1.57276 -0.1238,-1.65175 0.1304,-0.33389 0.3912,-0.70319 0.4942,-1.06131 0.099,-0.28326 0.3686,-0.35049 0.4939,-0.5897 0.1386,-0.32176 0.7694,-0.14146 1.1124,-0.11802 h 1.3591 c 0.041,-0.0328 0.07,-0.063 0.078,-0.0689 z" /><path
         style="fill:#000000;stroke-width:2.78457"
         d="m 1720.3547,135.74809 c -3.5594,0.12619 -7.0691,-0.0736 -10.5601,0.49909 -0.9047,0.35732 -1.3403,1.83009 -0.1504,2.12677 1.72,0.57225 3.5998,0.23536 5.3894,0.3873 8.9992,0.0427 18.0127,0.1751 27.0024,-0.14986 1.0795,-0.14055 1.5783,-1.46877 0.675,-2.10695 -1.2147,-0.77724 -2.8011,-0.34839 -4.1799,-0.56989 -6.054,-0.26511 -12.1176,-0.18946 -18.1764,-0.18646 z"
         id="path24-8-4-9" /><path
         style="fill:#000000;stroke-width:2.99777"
         d="m 1735.498,110.16454 c 4.1253,0.12619 8.193,-0.0736 12.239,0.49909 1.0486,0.35732 1.5535,1.83009 0.1744,2.12677 -1.9934,0.57225 -4.1721,0.23536 -6.2463,0.3873 -10.4299,0.0427 -20.8765,0.1751 -31.2956,-0.14986 -1.251,-0.14055 -1.8291,-1.46877 -0.7823,-2.10695 1.4079,-0.77724 3.2465,-0.3484 4.8445,-0.56989 7.0166,-0.26511 14.0442,-0.18946 21.0663,-0.18646 z"
         id="path24-8-9-0-6" /><path
         id="path23-5-5-1"
         style="fill:#000000;stroke-width:4.51606"
         d="m 1695.6209,123.93381 c 0.016,-0.45802 0.036,-0.9164 0.052,-1.37444 -0.3819,-0.95668 1.829,-1.79268 4.8095,-1.87322 2.3956,-0.20544 2.3167,0.78474 3.0795,1.23865 1.6967,1.93025 1.1926,3.98151 0.5603,5.94664 -0.7074,0.72686 -3.9406,1.53898 -6.1687,1.04621 -2.9981,-1.45784 -2.0776,-3.32856 -2.3331,-4.98384 z m 2.1151,0.42389 c 0,0.18382 0.038,0.35999 0.1347,0.51303 0.1161,0.18194 -0.1161,0.49993 0,0.68173 0.1592,0.25096 0.3305,0.52178 0.4942,0.77987 0.038,0.0588 0.072,0.25084 0.1236,0.29209 0.1356,-0.0806 0.095,0.075 0.1237,0.0975 0.094,0.0738 0.4879,0.0462 0.6176,0.0975 0.052,0.02 0.072,0.0776 0.1237,0.0975 0.061,0.0238 1.046,0.0512 1.1115,0 0.03,-0.0225 -0.028,-0.0751 0,-0.0975 0.041,-0.0325 0.4221,-0.16569 0.4951,-0.19445 0.1473,-0.0588 0.222,-0.23396 0.3702,-0.29272 0.073,-0.0287 0.1891,0.0464 0.2473,0 0.059,-0.0464 -0.058,-0.14832 0,-0.19454 0.028,-0.0238 0.094,0.0225 0.1236,0 0.016,-0.0118 0,-1.05573 0,-1.16952 0,-0.21081 0.033,-1.92262 0,-1.94887 -0.023,-0.0187 -1.6063,-0.0119 -2.4706,0 -0.4302,-0.0728 -0.9134,0.0287 -1.3547,0.0938 h -10e-4 v 6.5e-4 h -7e-4 l -7e-4,6.2e-4 -9e-4,6.2e-4 c -0.019,0.0277 0.018,0.26571 0,0.29085 -0.1025,0.16406 -0.1236,0.18919 -0.1236,0.38962 0,0.18319 -0.017,0.37499 -0.016,0.55893 z" /><path
         style="fill:#000000;stroke-width:2.59504"
         d="m 1754.2076,123.78173 c -14.7395,0.024 -29.483,0.004 -44.2241,0.0105 -0.5965,0.5002 -1.4516,1.27884 -0.9023,2.16356 0.875,0.68768 2.1118,0.47821 3.1528,0.57468 13.3408,0.48469 26.7011,0.50615 40.0438,0.11222 1.038,-0.15714 2.3657,0.1948 3.1577,-0.68946 0.6486,-0.83313 -0.2046,-1.72817 -0.8491,-2.16612 -0.121,-0.0676 -0.2529,-0.0279 -0.3788,-0.005 z"
         id="path22-37-8-8" /><path
         id="path30-9-1"
         style="stroke-width:5.00206"
         d="m 1698.897,107.35776 c -0.5808,0.0153 -1.1617,0.0348 -1.7425,0.0508 -1.213,-0.36945 -2.2729,1.77017 -2.3749,4.65425 -0.2604,2.31801 0.995,2.24165 1.5704,2.97978 2.4472,1.64188 5.0479,1.15454 7.5393,0.54278 0.9215,-0.68462 1.9509,-3.81381 1.3262,-5.96974 -1.8483,-2.90114 -4.22,-2.01065 -6.3185,-2.2579 z m 3.0474,5.84411 c -0.043,0.16555 0.079,0.4372 0,0.58969 -10e-5,3.3e-4 4e-4,10e-4 0,10e-4 -0.043,0.0464 -0.8096,0.33932 -0.8643,0.35273 -0.3417,0.0817 -2.8705,0.0379 -2.9656,-0.2362 -0.091,-0.26495 0,-0.79604 0,-1.06129 v -2.83119 c 0.3294,-0.11789 0.6456,-0.28072 0.989,-0.3535 0.057,-0.0118 0.067,0.1005 0.1235,0.11802 0.078,0.0249 0.1649,0 0.2473,0 h 1.7293 l 0.398,-0.008 c 0.044,-9.3e-4 0.036,-0.10999 0.063,-0.10986 l 0.1001,6e-4 c 0.1302,-0.0511 0.3693,2.81637 0.1806,3.53785 z" /><path
         style="fill:#000000;stroke-width:2.03458"
         d="m 1730.9341,90.149243 c -17.4262,0.005 -34.8529,6.5e-4 -52.2793,0.002 -2.1236,0.9749 -4.1824,2.52788 -4.9648,4.81836 -0.3619,6.722257 -0.235,13.458127 -0.3053,20.187067 -0.058,16.5306 -0.079,33.06215 0.059,49.59223 0.065,1.90515 -0.031,3.8492 0.373,5.71875 0.465,1.46135 1.5312,2.67428 2.9042,3.34911 1.185,0.74238 2.5728,1.17658 3.9778,1.04005 13.8645,0.32234 27.7341,0.24296 41.6012,0.22648 3.413,-0.0515 6.7969,-0.0233 10.1726,-0.45943 2.1622,-0.42312 3.7514,-2.24132 4.645,-4.15816 0.6107,-1.48512 0.4195,-3.13224 0.5503,-4.699 0.01,-1.17629 0.086,-2.37308 -0.029,-3.53733 -0.3791,-0.80488 -1.8528,-1.22604 -2.3243,-0.32375 -0.8348,2.83446 0.069,5.9079 -0.9081,8.70656 -0.8544,1.64014 -2.9122,1.8364 -4.5578,1.90279 -7.054,0.40515 -14.1235,0.20202 -21.1848,0.26769 -9.9126,0.002 -19.8252,0.004 -29.7379,0.005 -0.9339,-0.86229 -1.8663,-1.72617 -2.8008,-2.5879 0.016,-23.452 -0.064,-46.90471 0.1101,-70.356157 0.043,-1.71228 0.073,-3.46007 0.4809,-5.12603 0.3614,-0.87795 1.1202,-1.49225 1.704,-2.21508 17.6163,-0.0389 35.2341,-0.23849 52.8496,-0.0293 1.5421,0.10437 2.805,1.33916 3.1652,2.80815 0.7545,2.14773 0.2441,4.47058 0.6492,6.666457 0.4161,0.96644 2.2671,1.02761 2.3337,-0.19734 0.4492,-2.149547 0.3167,-4.391637 0.01,-6.546797 -0.6198,-2.2233 -2.5878,-3.71892 -4.5881,-4.658 -0.5648,-0.34673 -1.2466,-0.47791 -1.9022,-0.39669 z"
         id="path21-6-2-9" /><path
         style="fill:none;stroke-width:0.409824"
         d="m 1698.9845,121.10492 c 0.1867,0.94106 -0.3171,2.22484 0.1238,3.06659 0.037,0.0703 -0.058,0.18031 0,0.2359 0.1569,0.14952 1.0041,-0.0922 1.1118,-0.11788 0.1396,-0.0333 0.3677,0.0603 0.4943,0 0.1443,-0.0686 0.2268,-0.16722 0.3705,-0.23589 0.1025,-0.0493 0.416,0.0748 0.4943,0 0.057,-0.0545 -0.038,-0.28262 0,-0.35387 0.026,-0.0498 0.105,-0.0652 0.1236,-0.11789 0.084,-0.24223 0.2547,-1.99076 0.1237,-2.24098 -0.13,-0.24781 -0.2446,0.004 -0.3704,-0.11789 -0.062,-0.0589 -0.062,-0.17692 -0.1237,-0.23585 0,-0.004 -0.3586,-0.10669 -0.3706,-0.11788 -0.028,-0.0278 0.028,-0.0901 0,-0.11789 -0.059,-0.0555 -0.1734,0.0352 -0.247,0 -0.2501,-0.11934 -1.707,-0.84727 -1.9767,-0.58975 -0.2402,0.22924 0.1538,0.63183 0.2469,0.94357 z m 4.8184,1.41537 -0.2472,3.18452"
         id="path31-3-0" /><path
         style="fill:none;stroke-width:0.409824"
         d="m 1697.3786,121.34082 2.7179,2.94866"
         id="path32-2-8" /><path
         style="fill:none;stroke-width:0.264583"
         d="m 1699.398,119.3077 -10.5208,8.96217"
         id="path33-6-8" /><path
         style="fill:none;stroke-width:0.409824"
         d="m 1698.9845,135.37635 c 0.032,0.26593 0.021,0.43303 -0.3705,1.17948 -0.037,0.0703 0.037,0.16554 0,0.23589 -0.121,0.22984 -0.4566,0.87942 -0.2472,1.17944 0.065,0.0925 0.1647,0.15727 0.2472,0.23589 0.083,0.11788 0.1707,0.23228 0.2472,0.35384 0.1394,0.22177 0.225,0.57923 0.494,0.7077 0.1965,0.0938 1.0464,0.0361 1.2354,0 0.2455,-0.0469 0.4854,-0.46759 0.7413,-0.58976 0.036,-0.0175 0.095,0.0278 0.1237,0 0.062,-0.0589 0,-0.49736 0,-0.58972 0,-0.32223 0.1062,-0.87606 0,-1.17947 -0.095,-0.27353 -0.4769,-0.55652 -0.6178,-0.82562 -0.018,-0.0352 0.03,-0.0901 0,-0.11788 -0.028,-0.0281 -0.095,0.0278 -0.1236,0 -0.058,-0.0555 0.026,-0.1613 0,-0.2359 -0.1186,-0.34262 -0.1301,-0.16458 -0.3707,-0.47178 -0.1443,-0.18269 -0.1426,-0.37164 -0.2471,-0.4718 -0.2998,-0.28623 -0.767,0.35447 -1.112,0.58973 z"
         id="path34-8-3" /><path
         style="fill:none;stroke-width:0.409824"
         d="m 1692.1896,134.66867 7.0421,0.82564"
         id="path35-3-7" /><path
         style="fill:none;stroke-width:0.264583"
         d="m 1696.3587,136.29688 c -0.2339,1.79245 -14.8072,-1.01311 -14.8072,-1.01311"
         id="path36-66-0" /><path
         style="fill:none;stroke-width:0.409824"
         d="m 1697.5021,149.80846 1.9766,-0.58972"
         id="path37-6-5" /><path
         style="fill:none;stroke-width:0.409824"
         d="m 1698.1199,145.91626 c 0.5352,0 1.0707,0 1.6059,0 0.038,0 0.3536,-0.0244 0.3707,0 0.1929,0.27634 0.2172,0.76847 0.3706,1.0615 0.2887,0.55136 0.5853,1.11754 0.8648,1.65123 0.1001,0.1914 -0.1839,0.61855 -0.3706,0.70768 -0.036,0.0175 -0.094,-0.0275 -0.1236,0 -0.2558,0.24402 0.3905,-0.009 -0.1237,0.2359 -0.13,0.062 -0.9357,0.20208 -1.1119,0.11789 -0.3503,-0.16714 -0.6978,-0.45794 -1.112,-0.58976 -0.078,-0.0248 -0.1888,0.0554 -0.2471,0 -0.062,-0.0589 -0.062,-0.17691 -0.1236,-0.23589 -0.061,-0.0572 -0.4468,-0.1754 -0.4943,-0.2359 -0.1732,-0.22046 -0.4942,-0.65538 -0.4942,-0.94354 0,-0.60015 0.3454,-0.49494 0.865,-0.82565 0.049,-0.0308 0.072,-0.093 0.1236,-0.11789 0.074,-0.0352 0.2587,0.0778 0.247,0 -0.043,-0.28333 -0.1648,-0.55039 -0.247,-0.8256 z"
         id="path38-3-8" /><path
         style="fill:none;stroke-width:0.321313"
         d="m 1696.6133,145.60152 c 0,1.35314 0,-1.59189 0,0.71637 0,0.13823 -0.113,0.88343 0,0.98499 0.208,0.18624 0.8282,-0.21731 1.0002,-0.26862 0.3526,-0.10525 1.7844,-0.0751 1.8006,-0.0896 0.033,-0.0297 0,-1.39303 0,-1.52224 0,-0.26436 0.1258,-0.66952 0,-0.89546 -0.018,-0.0319 -0.7988,-1.8e-4 -0.8002,0 -0.4452,0.057 -1.126,0.10097 -1.5004,0.26863 -0.2288,0.10242 -0.6505,-0.0558 -0.9003,0 -0.2046,0.0457 -0.2044,0.0895 -0.4001,0.0895"
         id="path39-1-0" /><path
         style="fill:none;stroke-width:0.321313"
         d="m 1696.3132,145.6723 c 0,0.11938 -0.1334,0.35818 0,0.35818 0.1333,0 0,-0.4776 0,-0.35818 0,0.29848 0,0.59695 0,0.89543 0,0.19365 -0.017,1.23877 0,1.25365 0.048,0.0421 0.1528,-0.0421 0.2001,0 0.048,0.0421 -0.047,0.13686 0,0.17908 0.023,0.0211 0.077,-0.0213 0.1001,0 0.047,0.0421 -0.048,0.13688 0,0.1791 0.023,0.021 0.1001,0.0297 0.1001,0 0,-0.0598 -0.2001,-0.0598 -0.2001,0 0,0.0297 0.067,0 0.1001,0 0.1668,0 0.3335,0 0.5002,0 0.3667,0 0.7336,0 1.1003,0 0.074,0 1.1948,0.004 1.2003,0 0.1271,-0.11409 -0.1001,-0.30939 -0.1001,-0.35818 0,-0.41291 -0.1155,-1.0202 0,-1.43274 0.054,-0.19131 0.1001,-0.2502 0.1001,-0.44771 0,-0.33722 -0.015,-0.67323 0.1002,-0.985 0.023,-0.0633 0.1745,-0.17909 0.1001,-0.17909 -0.013,0 0.014,0.25546 0,0.26863 -0.023,0.0213 -0.077,-0.0211 -0.1001,0 -0.023,0.0213 0.023,0.0684 0,0.0895 -0.075,0.0668 -0.098,-0.0895 -0.2001,-0.0895 -0.5669,0 -1.1337,0 -1.7006,0 -0.3667,0 -0.7336,0 -1.1003,0 -0.1333,0 -0.4189,-0.11818 -0.4,0 0.035,0.2151 0.1333,0.41788 0.1999,0.62683 z"
         id="path40-6-0" /><path
         style="fill:none;stroke-width:0.321313"
         d="m 1696.4132,145.24337 c 0,0.11939 -0.1334,0.35815 0,0.35815 0.1335,0 0,-0.47756 0,-0.35815 0,0.26306 0,2.14747 0,2.14907 0.071,0.0633 0.6185,0 0.7003,0 0.2345,0 -0.048,-0.0213 0.2001,0.0895 0.2404,0.10766 0.804,-0.003 1.0002,-0.0895 0.1695,-0.0758 0.6065,0 0.8002,0 0.1576,0 0.08,-0.0895 0.3001,-0.0895 0.067,0 0.2001,0.0598 0.2001,0 0,-0.0466 -0.6278,-0.0571 -0.7002,-0.0895 -0.042,-0.0189 -0.058,-0.0706 -0.1001,-0.0895 -0.076,-0.0336 -1.7561,-0.043 -1.9005,0 -0.1823,0.0545 -0.5907,0.18332 -0.8002,0.0895 -0.067,-0.0297 0.077,-0.11578 0.1001,-0.1791 0.03,-0.0791 0,-0.26413 0,-0.35818 0,-0.24024 0.1232,-1.34884 0.2,-1.43271 0.1889,-0.20663 0.5278,-0.24978 0.8003,-0.35819 0.031,-0.0122 0.077,-0.0213 0.1001,0 0.023,0.0211 -0.023,0.0684 0,0.0895 0.047,0.0421 0.1529,-0.0421 0.2,0 0.023,0.0211 -0.023,0.0684 0,0.0895 0.05,0.0444 0.4298,0 0.5002,0 0.069,0 0.6715,0.0639 0.7001,0.0895 0.047,0.0421 0,0.11939 0,0.1791 0,0.28862 0.1002,0.5332 0.1002,0.80589 0,0.0849 -0.06,0.4832 0,0.53728 0.023,0.021 0.077,-0.0211 0.1001,0 0.022,0.0201 0.1001,0.2256 0.1001,0 0,-0.0845 0.085,-1.68704 -0.1001,-1.52227 -0.086,0.0771 0.05,1.38732 0.1001,1.52227 0.063,0.16706 0.1245,0.22305 0.2,0.35819 0.031,0.054 -0.046,0.22725 0,0.26862 0.024,0.0213 0.077,0.0213 0.1001,0 0.047,-0.0421 0,-0.11939 0,-0.17909 0,-0.22771 0.08,-0.59175 0,-0.8059 -0.023,-0.0633 -0.077,-0.11578 -0.1001,-0.1791 -0.087,-0.23318 -0.023,-0.91679 -0.1002,-0.98499 -0.023,-0.0211 -0.076,0.0211 -0.1001,0 -0.015,-0.014 -0.015,-0.34423 0,-0.35818 0.024,-0.0211 0.1001,0.0297 0.1001,0 0,-0.0597 -0.1333,0 -0.1999,0 -0.2058,0 -0.2318,-0.0142 -0.4002,-0.0895 -0.083,-0.0372 -0.3367,0.0568 -0.4001,0 -0.023,-0.0211 0.023,-0.0684 0,-0.0895 -0.051,-0.0454 -1.4771,-0.23433 -1.6005,-0.17908 -0.1459,0.0652 -0.16,0.14324 -0.2001,0.17908 -0.023,0.0213 -0.1052,-0.0295 -0.1001,0 0.035,0.21512 0.1334,0.41789 0.2,0.62684 z"
         id="path41-2-5" /></g></g></svg>
