<?xml version="1.0" encoding="UTF-8" standalone="no"?>
<!-- Created with Inkscape (http://www.inkscape.org/) -->

<svg
   width="87.618942mm"
   height="78.944023mm"
   viewBox="0 0 87.618943 78.944023"
   version="1.1"
   id="svg1"
   xml:space="preserve"
   xmlns="http://www.w3.org/2000/svg"
   xmlns:svg="http://www.w3.org/2000/svg"><defs
     id="defs1" /><g
     id="layer21"
     transform="translate(700.8275,61.744041)"><path
       id="path106-9-5-4"
       style="fill:#000000;fill-opacity:1;stroke-width:0.274418"
       d="m -657.01829,-61.744035 a 43.809662,39.472069 0 0 0 -43.80922,39.472009 43.809662,39.472069 0 0 0 43.80922,39.47201 43.809662,39.472069 0 0 0 43.80972,-39.47201 43.809662,39.472069 0 0 0 -43.80972,-39.472009 z m -0.63614,14.650269 c 1.29152,-0.04156 2.6799,-0.02567 4.1677,0.06201 10.99381,0.03453 17.7026,9.634964 14.11697,16.220199 -1.49557,4.683402 -6.22206,5.147776 -14.26838,7.518404 -7.67054,1.540089 -2.23655,16.5809002 -2.23655,16.5809002 0.55031,0.714315 -6.21774,1.7958399 -7.51221,-0.6356201 -0.87816,-8.4518341 -0.33666,-1.2160642 -1.12189,-9.8133541 0.28365,-5.112269 2.81554,-8.266607 8.5943,-10.10636 7.94111,-1.112967 13.18583,-2.254484 10.41901,-11.460283 -2.96799,-7.006886 -19.95873,-5.001579 -21.55321,-1.34462 0.0476,-0.01539 -4.86484,0.250718 -4.18992,-2.545065 0.25949,-1.074907 4.54357,-4.18529 13.58418,-4.476212 z m -0.80512,44.4443153 a 4.1934738,3.6645486 0 0 1 4.19354,3.6643758 4.1934738,3.6645486 0 0 1 -4.19354,3.6643758 4.1934738,3.6645486 0 0 1 -4.19303,-3.6643758 4.1934738,3.6645486 0 0 1 4.19303,-3.6643758 z" /></g></svg>
