<?xml version="1.0" encoding="UTF-8" standalone="no"?>
<!-- Created with Inkscape (http://www.inkscape.org/) -->

<svg
   width="141.21904mm"
   height="84.87854mm"
   viewBox="0 0 141.21904 84.87854"
   version="1.1"
   id="svg1"
   xmlns="http://www.w3.org/2000/svg"
   xmlns:svg="http://www.w3.org/2000/svg">
  <defs
     id="defs1" />
  <g
     id="layer1"
     transform="translate(-21.960401,-103.1875)">
    <path
       id="rect72-4-3-8-0"
       style="display:inline;fill:#1a1a1a;fill-opacity:1;stroke-width:0.455414"
       d="m 72.2235,103.1875 a 7.3800712,7.1611867 0 0 0 -7.3799,7.1608 7.3800712,7.1611867 0 0 0 4.5775,6.62492 v 3.5233 H 36.1296 c -7.8501,0 -14.1692,5.56862 -14.1692,12.48606 v 42.5974 c 0,6.91744 6.3191,12.48606 14.1692,12.48606 h 71.8556 c 7.8501,0 14.1691,-5.56862 14.1691,-12.48606 v -42.5974 c 0,-6.91744 -6.319,-12.48606 -14.1691,-12.48606 H 73.7485 v -3.14141 a 7.3800712,7.1611867 0 0 0 5.8549,-7.00681 7.3800712,7.1611867 0 0 0 -7.3799,-7.1608 z m 68.4491,17.09818 c -10.5668,0.37828 -15.5738,4.42265 -15.8771,5.82032 -0.7888,3.63526 4.953,3.28935 4.8974,3.30936 1.8636,-4.75503 21.7227,-7.3621 25.1917,1.74873 3.2339,11.97 -2.8969,13.45374 -12.1786,14.9009 -6.7542,2.39217 -9.7128,6.49348 -10.0443,13.14079 0.9178,11.17878 0.2846,1.77082 1.311,12.76046 1.513,3.16155 9.4236,1.75511 8.7804,0.82631 0,0 -6.3511,-19.5574 2.6143,-21.55992 9.4046,-3.08246 14.929,-3.68596 16.677,-9.77563 4.1909,-8.56257 -3.6506,-21.04581 -16.5003,-21.0907 -1.739,-0.11402 -3.362,-0.13466 -4.8715,-0.0806 z M 50.06,128.90996 A 18.124777,21.698668 0 0 1 68.185,150.60838 18.124777,21.698668 0 0 1 50.06,172.30731 18.124777,21.698668 0 0 1 31.9355,150.60838 18.124777,21.698668 0 0 1 50.06,128.90996 Z m 27.634,11.36881 h 31.8787 a 18.124777,21.698668 0 0 1 2.1854,10.32961 18.124777,21.698668 0 0 1 -18.125,21.69893 18.124777,21.698668 0 0 1 -18.1245,-21.69893 18.124777,21.698668 0 0 1 2.1854,-10.32961 z m 62.0381,37.79615 a 4.901371,4.7648926 0 0 0 -4.9016,4.76508 4.901371,4.7648926 0 0 0 4.9016,4.76508 4.901371,4.7648926 0 0 0 4.9015,-4.76508 4.901371,4.7648926 0 0 0 -4.9015,-4.76508 z" />
  </g>
</svg>
