<?xml version="1.0" encoding="UTF-8" standalone="no"?>
<!-- Created with Inkscape (http://www.inkscape.org/) -->

<svg
   width="84.918854mm"
   height="84.97818mm"
   viewBox="0 0 84.918855 84.97818"
   version="1.1"
   id="svg1"
   xml:space="preserve"
   xmlns="http://www.w3.org/2000/svg"
   xmlns:svg="http://www.w3.org/2000/svg"><defs
     id="defs1" /><g
     id="layer14"
     style="display:inline"
     transform="translate(-2175.4329,-245.49792)"><path
       id="path11-1-3-4"
       d="m 2192.6009,258.13548 c -0.4583,-0.004 -0.9185,0.0915 -1.2446,0.3143 -1.0585,0.79803 -0.4617,1.82416 -0.7576,2.72261 -0.04,0.47774 -0.073,0.95552 -0.1006,1.43331 -0.2523,0.0694 -0.504,0.14854 -0.7548,0.23871 -0.3904,-0.38242 -0.786,-0.76 -1.1883,-1.13183 -0.8336,-0.47442 -1.0906,-1.62783 -2.4227,-1.52842 -1.0524,0.12741 -2.1969,1.55065 -1.8667,2.2011 0.6676,0.86089 1.3516,1.70826 2.0483,2.5452 -0.3886,0.35245 -0.773,0.74801 -1.1524,1.19146 -0.03,0.22271 -0.053,0.45258 -0.071,0.68779 -1.0054,0.0641 -2.0069,0.20272 -3.006,0.53411 -0.6005,0.47948 -0.8895,2.45572 -0.1,2.85383 1.0459,0.70353 2.1809,0.38286 3.2773,0.48099 0.1466,0.96894 0.3637,1.8787 0.6339,2.61911 -0.6525,0.81299 -1.244,1.6729 -1.6718,2.67117 -0.031,0.75801 1.2899,2.27903 2.1176,1.96343 1.3437,-0.32875 1.8242,-1.54338 2.7669,-2.27962 0.021,-0.0228 0.042,-0.0454 0.063,-0.0682 0.4586,0.0539 0.9194,0.0623 1.3815,0.0481 0.044,1.41208 0.1376,2.81444 0.6334,4.20884 0.4948,0.58383 2.5156,0.8504 2.9155,0.0739 0.7748,-1.12406 0.3027,-2.34175 0.501,-3.50635 4e-4,-0.30878 0,-0.61767 0,-0.9265 0.1829,0.0174 0.3655,0.0417 0.5477,0.0741 0.2146,-0.0118 0.4401,-0.0307 0.6718,-0.0628 0.052,0.0568 0.1048,0.11363 0.1572,0.17048 0.9427,0.73624 1.4232,1.95087 2.7669,2.27962 0.8277,0.3156 2.1484,-1.20542 2.1176,-1.96343 -0.4293,-1.00179 -1.0237,-1.86425 -1.6788,-2.67979 0.3922,-0.65618 0.7194,-1.50383 0.9427,-2.59937 1.1182,-0.0434 2.2361,-0.10352 3.3534,-0.18517 0.7164,-0.1886 1.0475,-1.97081 0.4479,-2.82716 -0.8062,-1.04294 -1.859,-0.46742 -2.7742,-0.76464 -0.4426,-0.0392 -0.8853,-0.073 -1.328,-0.10182 -0.2132,-0.85652 -0.4908,-1.58544 -0.8117,-2.19396 0.6137,-0.74245 1.217,-1.49339 1.8075,-2.25485 0.3303,-0.65044 -0.8142,-2.07368 -1.8667,-2.20109 -1.332,-0.0994 -1.5891,1.054 -2.4227,1.52842 -0.1794,0.16583 -0.3575,0.33268 -0.5344,0.50072 -0.069,-0.005 -0.1371,-0.007 -0.205,-0.006 -0.4424,-0.02 -0.8862,-0.0347 -1.331,-0.0376 -0.054,-1.09853 -0.1248,-2.1964 -0.2179,-3.29367 -0.1242,-0.4374 -0.883,-0.72232 -1.6469,-0.72936 z m 0.4237,6.47124 v 4.1e-4 c 0.5608,-0.0381 1.1214,-0.0257 1.6778,0.001 1.1915,-0.0191 2.5988,1.52113 2.765,5.14353 -0.4417,3.27055 -2.0401,3.66941 -3.1634,3.73582 -1.7619,-0.33612 -3.5868,0.65574 -5.3047,-0.61578 -0.6951,-0.93582 -1.1229,-3.70585 -0.8804,-5.65454 1.5451,-1.93902 3.2241,-2.49796 4.9057,-2.6107 z m 1.173,2.30398 c -0.029,0.005 -0.048,0.1004 -0.075,0.11568 -0.071,0.04 -0.3734,-0.005 -0.4256,0 -0.3317,0.0308 -0.6617,0.1316 -0.9929,0.15788 -0.02,0 -1.4733,-0.0484 -1.5596,0 -0.1139,0.0633 -0.2212,0.14036 -0.3313,0.21058 v 2.57963 c 0,0.0643 -0.012,0.53564 0,0.57736 l 5e-4,5.7e-4 v 5.6e-4 l 6e-4,5.6e-4 c 0.017,0.019 0.1409,0.0509 0.1409,0.0521 0.023,0.0263 0.023,0.0797 0.046,0.10602 0.026,0.0296 0.1539,0.0656 0.1891,0.10477 0.025,0.028 0.023,0.0779 0.049,0.1056 0.041,0.0459 0.2,0.0845 0.2363,0.10498 0.051,0.0284 0.088,0.0856 0.1412,0.1056 0.045,0.0169 0.095,-0.008 0.1415,0 0.098,0.0181 0.1851,0.0866 0.2839,0.10476 0.2394,0.0444 0.8456,0.12031 1.0872,0.0529 0.1283,-0.0358 0.2383,-0.0834 0.3781,-0.10561 0.1777,-0.0284 1.2147,-0.19446 1.3237,-0.31555 0,-4e-4 0,-0.001 0,-0.002 0,-9e-5 0,-4e-4 0,-5.6e-4 v -2.1e-4 c 0.017,-0.0292 -0.018,-0.16724 -0.049,-0.20806 -0.011,-0.0104 -0.031,0.006 -0.042,0.004 h -6e-4 l -5e-4,-5.6e-4 h -6e-4 v -5.6e-4 h -6e-4 v -5.7e-4 l -6e-4,-5.6e-4 v -5.6e-4 c -0.048,-0.11105 -0.02,-0.24871 -0.048,-0.36909 -0.053,-0.23619 -0.146,-0.4417 -0.1891,-0.6836 -0.1065,-0.59199 -0.2172,-1.19667 -0.2842,-1.79044 -0.014,-0.085 0.02,-0.84717 6e-4,-0.89438 l -6e-4,-5.6e-4 c -0.01,-0.009 -0.01,-0.0107 -0.019,-0.01 z"
       style="display:inline;stroke-width:0.410599" /><path
       id="path26-5-4-59-9-1"
       style="display:inline;fill:#000000;stroke-width:0.545306"
       d="m 2210.2536,287.39709 c -1.1765,-0.0235 -1.4965,1.6733 -0.5335,2.23748 0.7626,0.76376 1.5261,1.52971 2.2977,2.28851 -0.9122,0.71275 -1.8087,1.44045 -2.6536,2.21824 -0.8363,0.98114 0.7501,2.12522 1.7235,1.4837 0.9039,-0.65657 1.8082,-1.31829 2.7043,-1.99019 0.9506,0.89618 1.9208,1.7723 2.9238,2.6127 0.9104,0.6432 2.0914,-0.36042 1.7463,-1.2994 -0.3772,-0.99086 -1.4959,-1.5441 -2.1726,-2.35547 -0.173,-0.15693 -0.3445,-0.31522 -0.5152,-0.47466 1.1404,-0.89313 2.2578,-1.80979 3.3373,-2.75988 0.7041,-0.78433 -0.063,-1.84285 -1.0949,-1.74093 -1.1075,0.11084 -1.7357,1.16497 -2.6296,1.67992 -0.4611,0.37479 -0.9297,0.74228 -1.4011,1.10714 -1.0401,-1.00429 -2.0895,-1.99854 -3.2307,-2.89314 -0.1279,-0.0329 -0.2482,-0.10821 -0.3852,-0.10614 -0.039,-0.004 -0.079,-0.008 -0.1168,-0.008 z" /><path
       id="path26-5-4-59-9-1-0"
       style="display:inline;fill:#000000;stroke-width:0.545306"
       d="m 2210.5594,263.24988 c -1.1766,-0.0234 -1.4965,1.67329 -0.5335,2.23747 0.7626,0.76378 1.526,1.52972 2.2977,2.28853 -0.9122,0.71273 -1.8088,1.44044 -2.6537,2.21824 -0.8362,0.98114 0.7501,2.12521 1.7236,1.48369 0.9039,-0.65656 1.8082,-1.31829 2.7043,-1.9902 0.9506,0.8962 1.9207,1.77232 2.9238,2.61272 0.9104,0.6432 2.0913,-0.36043 1.7463,-1.2994 -0.3773,-0.99087 -1.4959,-1.54411 -2.1726,-2.35547 -0.1729,-0.15694 -0.3445,-0.31522 -0.5152,-0.47468 1.1404,-0.89312 2.2578,-1.80978 3.3373,-2.75988 0.7041,-0.78431 -0.063,-1.84283 -1.0949,-1.74092 -1.1075,0.11084 -1.7357,1.16497 -2.6295,1.67992 -0.4612,0.37478 -0.9298,0.74229 -1.4012,1.10714 -1.0402,-1.00429 -2.0895,-1.99855 -3.2307,-2.89313 -0.1279,-0.0329 -0.2482,-0.10832 -0.3851,-0.10614 -0.04,-0.004 -0.079,-0.008 -0.117,-0.008 z" /><path
       style="display:inline;fill:#000000;stroke-width:2.27223"
       d="m 2259.1877,303.15124 c -10.8829,0.0564 -21.7686,-0.0584 -32.6512,0.0913 -0.9135,0.10429 -1.8981,0.0242 -2.7531,0.43986 -0.5917,0.73157 -0.1155,2.17754 0.7235,2.00204 4.9135,0.3743 9.8412,0.40025 14.7625,0.48073 6.3812,0.0301 12.7662,0.0488 19.1437,-0.25773 0.7293,-0.0683 1.8673,-0.063 1.9386,-1.33802 -0.088,-0.63501 -0.5416,-1.25955 -1.0064,-1.45077 l -0.097,0.0199 z"
       id="path26-5-0-2-6" /><path
       style="display:inline;fill:#000000;stroke-width:2.43818"
       d="m 2232.5473,291.10767 c -2.8018,0.1229 -5.5645,-0.0717 -8.3124,0.48611 -0.7121,0.34802 -1.055,1.78247 -0.1184,2.07143 1.3539,0.55736 2.8337,0.22923 4.2424,0.37721 7.0839,0.0416 14.1791,0.17055 21.2555,-0.14595 0.8496,-0.13688 1.2423,-1.43056 0.5313,-2.05213 -0.9562,-0.75701 -2.2049,-0.33933 -3.2902,-0.55506 -4.7656,-0.25821 -9.5386,-0.18453 -14.3079,-0.18161 z"
       id="path24-8-0-6-2" /><path
       style="display:inline;fill:#000000;stroke-width:2.62486"
       d="m 2244.4675,266.18982 c 3.2474,0.1229 6.4495,-0.0717 9.6343,0.4861 0.8255,0.34804 1.2229,1.78246 0.1376,2.07143 -1.5693,0.55737 -3.2843,0.22923 -4.9169,0.37722 -8.2102,0.0416 -16.4333,0.17055 -24.6349,-0.14596 -0.9848,-0.13689 -1.4398,-1.43055 -0.6158,-2.05213 1.1083,-0.75701 2.5555,-0.33933 3.8134,-0.55506 5.5231,-0.25819 11.0551,-0.18453 16.5827,-0.1816 z"
       id="path24-8-9-4-2-6" /><path
       style="display:inline;fill:#000000;stroke-width:2.27223"
       d="m 2259.1953,279.45268 c -11.6026,0.0233 -23.2081,0.004 -34.8119,0.01 -0.4694,0.48718 -1.1426,1.24556 -0.7102,2.10726 0.6888,0.66978 1.6624,0.46577 2.4819,0.55972 10.5014,0.47208 21.0181,0.49298 31.521,0.10931 0.8171,-0.15305 1.8622,0.18973 2.4858,-0.67152 0.5104,-0.81146 -0.1612,-1.68321 -0.6684,-2.10976 -0.095,-0.0658 -0.1993,-0.0272 -0.2982,-0.005 z"
       id="path22-37-5-9-4" /><path
       style="display:inline;fill:#000000;stroke-width:2.03458"
       d="m 2233.0269,245.52146 c -17.4261,0.005 -34.8528,6.5e-4 -52.2792,0.002 -2.1237,0.9749 -4.1824,2.52788 -4.9648,4.81836 -0.3619,6.72226 -0.2351,13.45813 -0.3053,20.18707 -0.058,16.5306 -0.079,33.06214 0.059,49.59222 0.065,1.90515 -0.031,3.8492 0.373,5.71875 0.4649,1.46135 1.5312,2.67428 2.9042,3.34911 1.1849,0.74238 2.5728,1.17658 3.9777,1.04005 13.8646,0.32234 27.7342,0.24297 41.6012,0.22648 3.413,-0.0515 6.797,-0.0233 10.1726,-0.45942 2.1623,-0.42313 3.7514,-2.24132 4.645,-4.15817 0.6108,-1.48512 0.4195,-3.13224 0.5504,-4.699 0.01,-1.17629 0.086,-2.37308 -0.029,-3.53733 -0.379,-0.80488 -1.8527,-1.22604 -2.3243,-0.32375 -0.8348,2.83447 0.069,5.90791 -0.9081,8.70656 -0.8544,1.64014 -2.9121,1.8364 -4.5578,1.90279 -7.054,0.40515 -14.1235,0.20203 -21.1848,0.26769 -9.9126,0.002 -19.8251,0.004 -29.7379,0.005 -0.9339,-0.86229 -1.8662,-1.72617 -2.8008,-2.5879 0.016,-23.452 -0.064,-46.90469 0.1102,-70.35615 0.043,-1.71228 0.073,-3.46007 0.4809,-5.12603 0.3613,-0.87795 1.1201,-1.49225 1.7039,-2.21508 17.6163,-0.0389 35.2341,-0.23849 52.8496,-0.0293 1.5421,0.10437 2.8051,1.33916 3.1653,2.80815 0.7545,2.14773 0.2441,4.47058 0.6492,6.66646 0.416,0.96644 2.2671,1.02761 2.3337,-0.19734 0.4492,-2.14955 0.3167,-4.39164 0.01,-6.5468 -0.6198,-2.2233 -2.5877,-3.71892 -4.5881,-4.658 -0.5648,-0.34673 -1.2465,-0.47791 -1.9022,-0.39669 z"
       id="path21-6-8-6-1" /><path
       id="path26-5-4-4-7-3-6"
       style="display:inline;fill:#000000;stroke-width:0.368588"
       d="m 2218.0019,276.43382 c -1.4139,0.10745 -1.8661,1.64239 -2.7328,2.48939 -0.7681,1.03727 -1.6587,2.01347 -2.3866,3.07875 -0.7655,-0.7469 -1.5284,-1.50181 -2.452,-2.04322 -0.121,-0.007 -0.2387,-0.0639 -0.3595,-0.0272 -1.2808,0.0422 -1.4631,1.80313 -0.4377,2.34686 1.0613,0.9518 1.984,2.1079 3.2464,2.82221 0.3944,0.0881 0.7411,-0.0166 0.9997,-0.22476 0.2187,-0.0346 0.433,-0.13013 0.6251,-0.29965 1.6879,-1.95103 3.3681,-3.95228 4.7642,-6.10249 0.4071,-0.87014 -0.2161,-2.04719 -1.2668,-2.0399 z" /><path
       id="path26-5-4-4-7-5-1-5"
       style="display:inline;fill:#000000;stroke-width:0.346676"
       d="m 2217.9336,299.03393 c -1.1374,-0.009 -1.7165,1.63593 -2.5258,2.48807 -0.8392,1.18396 -1.787,2.27188 -2.5651,3.52294 -0.8053,-0.78362 -1.5987,-1.58821 -2.5692,-2.15726 -0.121,-0.007 -0.2389,-0.0645 -0.3595,-0.0278 -1.2808,0.0422 -1.4632,1.80377 -0.4377,2.34751 1.0611,0.9518 1.9839,2.10791 3.2463,2.8222 0.3163,0.0707 0.6016,0.0167 0.8356,-0.11468 0.1442,-0.0365 0.29,-0.11752 0.4314,-0.2526 1.6194,-1.99068 3.2403,-4.03778 4.6566,-6.27353 0.4479,-0.91902 0.1224,-2.26802 -0.7126,-2.35482 z" /></g></svg>
