<?xml version="1.0" encoding="UTF-8" standalone="no"?>
<!-- Created with Inkscape (http://www.inkscape.org/) -->

<svg
   width="87.53141mm"
   height="83.871033mm"
   viewBox="0 0 87.531411 83.871033"
   version="1.1"
   id="svg1"
   xml:space="preserve"
   xmlns="http://www.w3.org/2000/svg"
   xmlns:svg="http://www.w3.org/2000/svg"><defs
     id="defs1" /><g
     id="layer11"
     style="display:inline"
     transform="translate(-793.68089,214.60139)"><path
       d="m 837.86922,-149.2105 c -0.61724,1.43392 -1.27986,3.44851 -0.79784,4.56676 2.11578,4.90849 2.80202,7.94922 5.05062,12.90432 2.17525,4.79345 12.28798,-8.79621 17.24577,-13.42674 4.34991,-4.06277 2.67253,-5.51926 0.7206,-15.59408 -0.53517,-2.76255 -7.77156,8.19993 -18.86231,6.9874 -2.2296,-0.24375 -2.64901,2.91804 -3.35684,4.56234 z"
       id="path48-9-6-1-1"
       style="stroke-width:5.05362" /><path
       d="m 812.58432,-172.57933 c -1.45901,0.61524 -3.51035,1.2792 -4.65523,0.81516 -5.02538,-2.03684 -8.13394,-2.68686 -13.20786,-4.85348 -4.90843,-2.09596 8.88771,-12.10322 13.57749,-16.99441 4.11478,-4.29148 5.61365,-2.65881 15.91087,-0.82039 2.82351,0.50405 -8.31227,7.67406 -6.99333,18.53091 0.26513,2.1826 -2.95889,2.61667 -4.63194,3.32221 z"
       id="path48-9-0-0-5-9"
       style="stroke-width:5.05362" /><path
       d="m 872.39506,-214.57397 c -11.77941,-0.44916 -27.1667,4.66856 -36.09311,12.00292 -8.72018,7.165 -19.90276,19.5136 -16.73806,31.32135 1.42744,5.32582 6.74037,12.76263 13.20564,14.48454 14.73451,3.92406 21.63666,-1.40672 33.37681,-14.57628 7.96803,-8.20817 13.72369,-21.93982 14.87823,-35.49902 0.60227,-7.07288 0.2418,-7.39517 -8.62951,-7.73351 z m -14.60983,13.0374 c 4.27488,0.0805 9.13575,4.48795 7.71483,10.11154 -1.99918,7.91216 -10.31067,10.90772 -16.12083,4.72414 -6.30446,-6.7096 2.12299,-14.95328 8.40626,-14.83565 z m -42.18163,31.30624 c -1.24743,-0.078 -6.54552,4.41919 -8.57822,6.98546 -3.8431,4.85189 -4.55405,7.49821 -1.02976,6.20788 4.13789,-1.51499 5.51867,-2.30101 0.7744,6.64156 -2.56315,4.83135 -0.84935,6.04262 4.82058,4.67322 5.32344,-1.2856 9.09338,-3.435 5.54447,1.26204 -3.61323,4.6982 -0.55329,3.87277 3.07865,2.44576 4.59267,-1.35082 11.75078,-8.13097 12.5094,-9.52619 0.70244,-1.29182 -2.75064,-1.04954 -5.61698,-2.67826 -3.97903,-2.26094 -8.89669,-7.77734 -10.16544,-11.40559 -0.6884,-1.96854 -1.3371,-4.60588 -1.3371,-4.60588 z"
       id="path48-4-0-0"
       style="stroke-width:5.03009" /></g></svg>
