<?xml version="1.0" encoding="UTF-8" standalone="no"?>
<!-- Created with Inkscape (http://www.inkscape.org/) -->

<svg
   width="68.860283mm"
   height="84.757072mm"
   viewBox="0 0 68.860283 84.757072"
   version="1.1"
   id="svg1"
   xml:space="preserve"
   inkscape:export-filename="Documents/inkscape/checklist.svg"
   inkscape:export-xdpi="96"
   inkscape:export-ydpi="96"
   sodipodi:docname="icons.svg"
   inkscape:version="1.4.2 (ebf0e940, 2025-05-08)"
   inkscape:export-batch-path="Documents/inkscape/rvn-diagram"
   inkscape:export-batch-name="rvn"
   xmlns:inkscape="http://www.inkscape.org/namespaces/inkscape"
   xmlns:sodipodi="http://sodipodi.sourceforge.net/DTD/sodipodi-0.dtd"
   xmlns="http://www.w3.org/2000/svg"
   xmlns:svg="http://www.w3.org/2000/svg"><sodipodi:namedview
     id="namedview1"
     pagecolor="#ffffff"
     bordercolor="#000000"
     borderopacity="0.25"
     inkscape:showpageshadow="2"
     inkscape:pageopacity="0.0"
     inkscape:pagecheckerboard="0"
     inkscape:deskcolor="#d1d1d1"
     inkscape:document-units="mm"
     inkscape:zoom="0.40430796"
     inkscape:cx="478.59558"
     inkscape:cy="-1841.4181"
     inkscape:window-width="1512"
     inkscape:window-height="916"
     inkscape:window-x="0"
     inkscape:window-y="38"
     inkscape:window-maximized="0"
     inkscape:current-layer="svg1"
     showgrid="true"
     inkscape:export-bgcolor="#cdcdcdff"><inkscape:grid
       id="grid49"
       units="mm"
       originx="-1877.7264"
       originy="-146.19221"
       spacingx="0.99999998"
       spacingy="1"
       empcolor="#0099e5"
       empopacity="0.30196078"
       color="#0099e5"
       opacity="0.14901961"
       empspacing="5"
       enabled="true"
       visible="true" /><inkscape:page
       x="0"
       y="0"
       width="68.860283"
       height="84.757065"
       id="page1"
       margin="0"
       bleed="0" /></sodipodi:namedview><defs
     id="defs1" /><g
     inkscape:groupmode="layer"
     id="layer14"
     inkscape:label="diagram"
     style="display:inline"
     transform="translate(-1877.7264,-146.19221)"><g
       id="g67"
       transform="rotate(-8.3376648,1704.7557,-7631.4991)"><path
         id="path11"
         d="m 764.02956,91.456079 c -0.78787,-0.0075 -1.57893,0.162412 -2.13951,0.557963 -1.81952,1.416746 -0.79371,3.238412 -1.30236,4.833417 -0.0688,0.848123 -0.12603,1.696319 -0.17289,2.54455 -0.43373,0.123133 -0.86631,0.263695 -1.29757,0.423777 -0.67099,-0.678906 -1.3511,-1.349226 -2.04257,-2.009326 -1.43296,-0.84223 -1.87489,-2.88988 -4.16476,-2.713389 -1.80913,0.226193 -3.77656,2.752857 -3.20891,3.907585 1.14774,1.528324 2.32343,3.032654 3.52114,4.518464 -0.66807,0.62569 -1.32885,1.32793 -1.98101,2.11518 -0.0512,0.39537 -0.0915,0.80346 -0.12165,1.22103 -1.72831,0.11374 -3.4499,0.35988 -5.16743,0.9482 -1.0322,0.85121 -1.52899,4.35961 -0.17141,5.06636 1.79794,1.24897 3.74902,0.67969 5.63375,0.8539 0.25203,1.72015 0.62532,3.33524 1.08966,4.64967 -1.12156,1.4433 -2.13834,2.96989 -2.87382,4.7421 -0.0529,1.34569 2.21733,4.04594 3.64019,3.48566 2.30989,-0.58363 3.13581,-2.73995 4.75641,-4.04698 0.0361,-0.0405 0.0723,-0.0807 0.10838,-0.12113 0.78835,0.0956 1.58042,0.11055 2.37471,0.0853 0.0755,2.50684 0.23658,4.99643 1.08892,7.4719 0.8505,1.03647 4.32429,1.5097 5.01187,0.13119 1.33176,-1.99552 0.52028,-4.15727 0.86112,-6.22477 7.1e-4,-0.54818 0.002,-1.09655 0.004,-1.64481 0.31452,0.0309 0.62828,0.0741 0.94148,0.13156 0.36894,-0.021 0.75656,-0.0544 1.15491,-0.11144 0.0901,0.10091 0.18019,0.20171 0.2702,0.30265 1.62061,1.30703 2.44652,3.46335 4.75641,4.04698 1.42286,0.56028 3.69314,-2.13997 3.64021,-3.48566 -0.73809,-1.77847 -1.75973,-3.30958 -2.88599,-4.75739 0.67419,-1.16492 1.23673,-2.66974 1.62049,-4.61463 1.92226,-0.0771 3.84397,-0.18378 5.76461,-0.32873 1.2316,-0.33483 1.80072,-3.49877 0.77006,-5.01903 -1.38591,-1.85151 -3.19576,-0.82981 -4.76894,-1.35745 -0.76086,-0.0696 -1.52183,-0.12959 -2.28292,-0.18077 -0.36648,-1.52057 -0.84374,-2.81461 -1.39525,-3.89491 1.05482,-1.31806 2.09199,-2.6512 3.10716,-4.002999 0.56765,-1.154729 -1.39978,-3.681385 -3.20891,-3.907578 -2.28987,-0.176491 -2.7318,1.871159 -4.16476,2.713389 -0.30839,0.294402 -0.6145,0.590607 -0.91862,0.888932 -0.11809,-0.0087 -0.23563,-0.01183 -0.35241,-0.01002 -0.76042,-0.03549 -1.52343,-0.0616 -2.28807,-0.06672 -0.0925,-1.950194 -0.21448,-3.89924 -0.37453,-5.847212 -0.21341,-0.77651 -1.51793,-1.282319 -2.83107,-1.294826 z m 0.72842,11.488311 v 7.2e-4 c 0.96392,-0.0676 1.92763,-0.0457 2.88414,0.002 2.04813,-0.034 4.46745,2.70043 4.75309,9.13123 -0.75931,5.80617 -3.50701,6.51427 -5.438,6.63216 -3.02865,-0.5967 -6.16583,1.16413 -9.11875,-1.09318 -1.19492,-1.66136 -1.93045,-6.57895 -1.51359,-10.03844 2.65612,-3.44231 5.54229,-4.4346 8.43311,-4.63475 z m 2.01639,4.09022 c -0.0507,0.009 -0.33422,0.17825 -0.38107,0.20537 -0.12281,0.071 -0.3895,-0.008 -0.47931,0 -0.57012,0.0547 -1.13741,0.23362 -1.70675,0.28028 -0.0352,0 -2.53264,-0.086 -2.68103,0 -0.19564,0.11237 -0.38014,0.24918 -0.56953,0.37384 v 4.57959 c 0,0.11419 -0.0214,0.95092 0,1.02498 l 10e-4,10e-4 c 0.0786,0.0444 0.0149,0.061 0.24319,0.0944 0.0391,0.0467 0.039,0.14156 0.08,0.18822 0.21165,0.0869 0.22666,0.22956 0.40913,0.37347 0.30593,0.13905 0.55204,0.35147 0.89208,0.37384 0.1679,0.0321 0.3182,0.15367 0.48806,0.18598 0.41158,0.0788 1.45365,0.21357 1.86894,0.0939 0.22045,-0.0635 0.40955,-0.1481 0.6499,-0.18748 0.30555,-0.0505 2.08811,-0.34523 2.27554,-0.56019 0,-7.2e-4 5e-5,-0.002 0,-0.003 0,-1.6e-4 -10e-6,-7.2e-4 0,-10e-4 v -3.8e-4 c 0.0293,-0.0519 -0.0309,-0.29689 -0.0837,-0.36936 -0.0195,-0.0185 -0.0528,0.01 -0.0722,0.007 h -10e-4 l -10e-4,-0.001 h -0.001 v -10e-4 h -10e-4 v -0.001 l -10e-4,-0.001 v -10e-4 c -0.082,-0.19713 -0.0349,-0.44153 -0.0818,-0.65524 -0.0902,-0.4193 -0.25095,-0.78414 -0.32514,-1.21358 -0.18294,-1.05096 -0.37323,-2.12443 -0.48843,-3.17854 -0.024,-0.15092 0.30733,-1.27199 0.27413,-1.3558 0.11268,0.10843 -0.23247,-0.20999 -0.30733,-0.25048 z"
         inkscape:export-filename="Documents/inkscape/Documents/inkscape/Documents/inkscape/Documents/inkscape/Documents/inkscape/Documents/inkscape/Documents/inkscape/Documents/inkscape/gears.svg"
         inkscape:export-xdpi="96"
         inkscape:export-ydpi="96"
         style="stroke-width:0.717286"
         sodipodi:nodetypes="sccccccccccccccccccccccccccccccccccccccccccssccccccccccsccccscccccccsccssccscccccccccccccc" /><path
         id="path11-3"
         d="m 811.63386,129.95282 c 0.007,-0.79662 -0.16063,-1.59645 -0.55183,-2.16326 -1.4012,-1.8397 -3.20288,-0.80252 -4.78038,-1.31681 -0.83881,-0.0695 -1.6777,-0.12742 -2.51662,-0.17481 -0.12178,-0.43854 -0.2608,-0.87592 -0.41913,-1.31197 0.67146,-0.67842 1.33442,-1.36608 1.98728,-2.06523 0.83298,-1.44886 2.85816,-1.89569 2.68361,-4.21097 -0.22371,-1.82921 -2.72265,-3.81847 -3.8647,-3.24453 -1.51156,1.16049 -2.99938,2.34922 -4.46888,3.56022 -0.97235,-1.14293 -1.81253,-2.00817 -3.29959,-2.12599 -0.1125,-1.74749 -0.35594,-3.48819 -0.93779,-5.22477 -0.84187,-1.04366 -4.31177,-1.54596 -5.01076,-0.17331 -1.23527,1.81788 -0.67223,3.79062 -0.84453,5.69626 -1.70127,0.25482 -3.29864,0.63226 -4.59864,1.10175 -1.42746,-1.13401 -2.9373,-2.16206 -4.69006,-2.90571 -1.33092,-0.0535 -4.00154,2.24194 -3.44741,3.68059 0.61237,2.17829 2.67323,3.33592 4.12238,4.91877 -0.0945,0.79709 -0.10935,1.59796 -0.0844,2.40106 -2.47933,0.0764 -4.9416,0.2392 -7.38989,1.10101 -1.02511,0.85993 -1.49314,4.37226 -0.12976,5.06748 1.97362,1.34654 4.11165,0.52605 6.15646,0.87067 0.54216,7.2e-4 1.08451,0.002 1.62675,0.004 -0.0306,0.318 -0.0733,0.63524 -0.13012,0.95192 0.0208,0.37304 0.0538,0.76496 0.11022,1.16773 -1.5605,1.61797 -3.56919,2.8653 -4.30189,5.08239 -0.55413,1.43865 2.11648,3.73411 3.44741,3.6806 1.75895,-0.74628 3.27325,-1.77926 4.70517,-2.91802 1.15214,0.68167 2.64045,1.25046 4.56399,1.63847 0.0762,1.9436 0.18176,3.88663 0.32512,5.82858 0.33116,1.24527 3.46038,1.82071 4.96395,0.77861 1.83119,-1.40129 0.8207,-3.23122 1.34255,-4.82186 0.0688,-0.7693 0.12816,-1.53871 0.17878,-2.30825 1.50389,-0.37055 2.78372,-0.85311 3.85217,-1.41074 1.30359,1.06653 2.6221,2.11521 3.95907,3.14164 1.14205,0.57395 3.64098,-1.41531 3.86469,-3.24451 0.17455,-2.31529 -1.85062,-2.76212 -2.68361,-4.21097 -0.29117,-0.31182 -0.58412,-0.62133 -0.87918,-0.92882 0.0344,-0.88946 0.0678,-1.77941 0.076,-2.66978 1.92879,-0.0935 3.85645,-0.21686 5.78304,-0.37869 0.76799,-0.21578 1.26825,-1.53477 1.28062,-2.86248 z m -11.36223,0.7365 h -7.1e-4 c 0.0668,0.97462 0.0452,1.94902 -0.002,2.91614 0.0336,2.07086 -2.6708,4.51703 -9.03102,4.80584 -5.74245,-0.76774 -6.44278,-3.54593 -6.55938,-5.49834 0.59016,-3.06227 -1.15135,-6.23426 1.08119,-9.21994 1.64313,-1.20818 6.50675,-1.95187 9.92827,-1.53039 3.40453,2.6856 4.38593,5.60379 4.58389,8.52669 z m -4.24844,1.90869 c -0.0702,-0.12417 0.007,-0.64904 0,-0.73985 -0.0541,-0.57645 -0.23105,-1.15003 -0.27721,-1.72569 0,-0.0356 0.0851,-2.56075 0,-2.71078 -0.11113,-0.19781 -0.24644,-0.38436 -0.36973,-0.57585 h -4.52933 c -0.11294,0 -0.94049,-0.0216 -1.01373,0 l -10e-4,0.001 h -10e-4 c -0.0372,0.0372 -0.0897,0.24588 -0.0924,0.24588 -0.41055,0.45653 -0.80129,0.51912 -0.92526,1.39661 -0.0317,0.16977 -0.15199,0.32173 -0.18394,0.49348 -0.0779,0.41615 -0.21122,1.46978 -0.0929,1.88968 0.0628,0.22289 0.14647,0.41409 0.18542,0.65711 0.0499,0.30894 0.34144,2.11128 0.55405,2.3008 7.1e-4,0 0.002,5e-5 0.003,0 1.6e-4,-1e-5 7.1e-4,-2e-5 10e-4,0 h 3.7e-4 c 0.32779,-0.12592 0.61791,-0.21541 1.01136,-0.2453 0.4147,-0.0912 0.77553,-0.25373 1.20026,-0.32874 1.03943,-0.18497 2.10111,-0.37737 3.14365,-0.49385 0.34244,-0.0555 1.41422,-0.11712 1.38739,-0.1645 z"
         style="stroke-width:0.717286"
         sodipodi:nodetypes="sccccccccccccccccccccccccccccccccccccccsscccccccccsccccsccccccsccssccccs" /><path
         id="path11-3-5"
         d="m 773.5778,178.41883 c 0.78788,0.007 1.57893,-0.16242 2.13952,-0.55797 1.81951,-1.41674 0.79371,-3.23841 1.30236,-4.83341 0.0688,-0.84813 0.12602,-1.69632 0.17289,-2.54455 0.43372,-0.12314 0.86631,-0.2637 1.29757,-0.42378 0.67098,0.6789 1.35109,1.34922 2.04257,2.00932 1.43295,0.84224 1.87488,2.88988 4.16476,2.71339 1.80912,-0.22619 3.77656,-2.75285 3.20891,-3.90758 -1.14775,-1.52833 -2.32343,-3.03266 -3.52114,-4.51847 0.66807,-0.62569 1.32884,-1.32793 1.981,-2.11518 0.0512,-0.39536 0.0915,-0.80345 0.12166,-1.22103 1.7283,-0.11374 3.4499,-0.35988 5.16743,-0.94819 1.0322,-0.85121 1.52899,-4.35962 0.1714,-5.06636 -1.79793,-1.24898 -3.74901,-0.67969 -5.63374,-0.8539 -0.25203,-1.72015 -0.62532,-3.33524 -1.08966,-4.64967 1.12156,-1.44331 2.13833,-2.96989 2.87382,-4.7421 0.0529,-1.3457 -2.21734,-4.04595 -3.6402,-3.48567 -2.30989,0.58363 -3.1358,2.73996 -4.75641,4.04698 -0.0361,0.0405 -0.0723,0.0807 -0.10838,0.12114 -0.78834,-0.0956 -1.58042,-0.11055 -2.3747,-0.0853 -0.0755,-2.50685 -0.23658,-4.99644 -1.08893,-7.4719 -0.85049,-1.03648 -4.32428,-1.50971 -5.01187,-0.1312 -1.33176,1.99553 -0.52027,4.15728 -0.86111,6.22478 -7.2e-4,0.54817 -0.002,1.09654 -0.004,1.64481 -0.31451,-0.0309 -0.62827,-0.0741 -0.94147,-0.13157 -0.36895,0.021 -0.75657,0.0544 -1.15492,0.11144 -1.5997,-1.57141 -2.81811,-3.60348 -5.02661,-4.34963 -1.42286,-0.56027 -3.69313,2.13997 -3.6402,3.48567 0.73808,1.77847 1.75973,3.30957 2.88599,4.75738 -0.67419,1.16492 -1.23674,2.66975 -1.62049,4.61463 -1.92227,0.0771 -3.84397,0.18379 -5.76461,0.32874 -1.23161,0.33482 -1.80073,3.49877 -0.77006,5.01903 1.38591,1.85151 3.19575,0.8298 4.76894,1.35744 0.76085,0.0696 1.52182,0.12959 2.28291,0.18077 0.36649,1.52058 0.84375,2.81461 1.39526,3.89491 -1.05482,1.31806 -2.092,2.6512 -3.10716,4.003 -0.56765,1.15473 1.39977,3.68139 3.2089,3.90758 2.28988,0.17649 2.7318,-1.87116 4.16476,-2.71339 0.3084,-0.2944 0.61451,-0.5906 0.91862,-0.88893 0.87969,0.0346 1.75986,0.0684 2.64049,0.0767 0.0925,1.9502 0.21448,3.89924 0.37453,5.84721 0.21341,0.77651 1.51793,1.28232 2.83106,1.29483 z m -0.72841,-11.48832 v -7.2e-4 c -0.96393,0.0676 -1.92764,0.0457 -2.88415,-0.002 -2.04813,0.034 -4.46745,-2.70044 -4.75309,-9.13124 0.75932,-5.80616 3.50702,-6.51427 5.438,-6.63216 3.02866,0.5967 6.16584,-1.16413 9.11876,1.09319 1.19491,1.66136 1.93044,6.57895 1.51359,10.03843 -2.65613,3.44231 -5.54229,4.4346 -8.43311,4.63476 z m -2.0164,-4.09021 c 0.0507,-0.009 0.0818,-0.17825 0.12865,-0.20537 0.12281,-0.071 0.64192,0.008 0.73173,0 0.57012,-0.0547 1.13741,-0.23362 1.70675,-0.28029 0.0352,0 2.53265,0.086 2.68103,0 0.19564,-0.11237 0.38015,-0.24918 0.56953,-0.37383 v -4.57959 c 0,-0.11419 0.0214,-0.95093 0,-1.02499 -0.25155,-0.23713 -0.54812,-0.36409 -0.73333,-0.65708 -0.30594,-0.13906 -0.55203,-0.35149 -0.89208,-0.37384 -0.16791,-0.0321 -0.3182,-0.15367 -0.48807,-0.18599 -0.41157,-0.0788 -1.45365,-0.21356 -1.86894,-0.0939 -0.22044,0.0635 -0.40954,0.14811 -0.64989,0.18749 -0.30556,0.0505 -2.08811,0.34523 -2.27555,0.56019 0,7.2e-4 -5e-5,0.002 0,0.003 10e-6,1.6e-4 2e-5,7.2e-4 0,0.001 v 3.7e-4 c -0.0293,0.0519 0.0309,0.2969 0.0837,0.36936 0.20613,0.31575 0.14641,0.43703 0.1591,0.65323 0.01,0.44467 0.25094,0.78415 0.32513,1.21358 0.18294,1.05097 0.37323,2.12443 0.48843,3.17854 0.024,0.15092 -0.0342,1.50398 -10e-4,1.58779 l 10e-4,10e-4 c 0.0117,0.0154 0.0136,0.019 0.0332,0.0175 z"
         style="stroke-width:0.717286"
         sodipodi:nodetypes="sccccccccccccccccccccccccccccccccccccccccssccccccccccsccccsccccsccssccccccccc"
         inkscape:export-filename="Documents/inkscape/Documents/inkscape/Documents/inkscape/Documents/inkscape/Documents/inkscape/Documents/inkscape/Documents/inkscape/Documents/inkscape/Documents/inkscape/Documents/inkscape/Documents/inkscape/Documents/inkscape/Documents/inkscape/Documents/inkscape/Documents/inkscape/Documents/inkscape/Documents/inkscape/Documents/inkscape/Documents/inkscape/Documents/inkscape/Documents/inkscape/Documents/inkscape/Documents/inkscape/Documents/inkscape/Documents/inkscape/Documents/inkscape/Documents/inkscape/Documents/inkscape/Documents/inkscape/Documents/inkscape/Documents/inkscape/Documents/inkscape/Documents/inkscape/Documents/inkscape/Documents/inkscape/Documents/inkscape/Documents/inkscape/Documents/inkscape/Documents/inkscape/Documents/inkscape/Documents/inkscape/Documents/inkscape/Documents/inkscape/Documents/inkscape/Documents/inkscape/Documents/inkscape/Documents/inkscape/Documents/inkscape/gears.svg"
         inkscape:export-xdpi="96"
         inkscape:export-ydpi="96" /></g></g></svg>
