<?xml version="1.0" encoding="UTF-8" standalone="no"?>
<!-- Created with Inkscape (http://www.inkscape.org/) -->

<svg
   width="93.469002mm"
   height="44.50882mm"
   viewBox="0 0 93.469002 44.50882"
   version="1.1"
   id="svg1"
   xml:space="preserve"
   inkscape:export-filename="Documents/inkscape/checklist.svg"
   inkscape:export-xdpi="96"
   inkscape:export-ydpi="96"
   sodipodi:docname="icons.svg"
   inkscape:version="1.4.2 (ebf0e940, 2025-05-08)"
   inkscape:export-batch-path="Documents/inkscape/rvn-diagram"
   inkscape:export-batch-name="rvn"
   xmlns:inkscape="http://www.inkscape.org/namespaces/inkscape"
   xmlns:sodipodi="http://sodipodi.sourceforge.net/DTD/sodipodi-0.dtd"
   xmlns="http://www.w3.org/2000/svg"
   xmlns:svg="http://www.w3.org/2000/svg"><sodipodi:namedview
     id="namedview1"
     pagecolor="#ffffff"
     bordercolor="#000000"
     borderopacity="0.25"
     inkscape:showpageshadow="2"
     inkscape:pageopacity="0.0"
     inkscape:pagecheckerboard="0"
     inkscape:deskcolor="#d1d1d1"
     inkscape:document-units="mm"
     inkscape:zoom="0.40430796"
     inkscape:cx="478.59558"
     inkscape:cy="-1841.4181"
     inkscape:window-width="1512"
     inkscape:window-height="916"
     inkscape:window-x="0"
     inkscape:window-y="38"
     inkscape:window-maximized="0"
     inkscape:current-layer="svg1"
     showgrid="true"
     inkscape:export-bgcolor="#cdcdcdff"><inkscape:grid
       id="grid49"
       units="mm"
       originx="-1255.2206"
       originy="-55.343713"
       spacingx="0.99999998"
       spacingy="1"
       empcolor="#0099e5"
       empopacity="0.30196078"
       color="#0099e5"
       opacity="0.14901961"
       empspacing="5"
       enabled="true"
       visible="true" /><inkscape:page
       x="0"
       y="0"
       width="93.469002"
       height="44.50882"
       id="page1"
       margin="0"
       bleed="0" /></sodipodi:namedview><defs
     id="defs1" /><g
     inkscape:groupmode="layer"
     id="layer14"
     inkscape:label="diagram"
     style="display:inline"
     transform="translate(-1255.2206,-55.343711)"><path
       id="path20-9-0-6"
       style="fill:#000000;stroke-width:0.10512"
       d="m 1348.6765,56.241481 c -0.155,0.69124 -0.4122,1.35579 -0.641,2.0253 -2.2161,6.022 -4.4902,12.02243 -6.7541,18.02674 -1.1551,3.03676 -2.2917,6.08057 -3.48,9.10456 -0.1988,0.49184 -0.4931,0.97435 -0.9631,1.24782 -0.143,0.10191 -0.286,0.20381 -0.4289,0.30581 -2.2814,-2.70613 -4.3719,-5.56488 -6.5939,-8.31856 -0.087,-0.17626 -0.2004,-0.17321 -0.3137,-0.0224 -1.3344,1.20754 -2.5596,2.52951 -3.8889,3.74268 -4.2038,3.92782 -8.875,7.3715 -13.9529,10.08578 -5.047,2.70473 -10.4519,4.75863 -16.0517,5.9721 -5.1838,1.12641 -10.5112,1.616419 -15.8131,1.38532 -5.8811,-0.25246 -11.7386,-1.2907 -17.3165,-3.18248 -1.7233,-0.59553 -3.4275,-1.25346 -5.0821,-2.0209 -0.6703,-0.3371 -1.3867,-0.65703 -1.8942,-1.22805 -0.2253,-0.24421 -0.3938,-0.62704 -0.1905,-0.93309 0.2427,-0.4114 0.7662,-0.47257 1.2003,-0.46744 1.326,0.0171 2.6439,0.18971 3.9625,0.31495 3.8318,0.40582 7.6679,0.83794 11.525,0.9941 3.9173,0.1623 7.8418,-0.12956 11.7209,-0.6718 3.1129,-0.44176 6.2275,-1.07542 9.2331,-1.94437 4.0536,-1.17158 8.0246,-2.74907 11.7924,-4.67846 2.3143,-1.18337 4.6089,-2.53198 6.766,-3.98059 4.2957,-2.88308 8.265,-6.26518 11.7293,-10.11048 0.3725,-0.43052 0.7546,-0.8555 1.0753,-1.32716 -1.8483,-2.50396 -3.7294,-4.98352 -5.5624,-7.49862 -0.5075,-0.71483 -1.0195,-1.43825 -1.3836,-2.23848 -0.1458,-0.33867 0.028,-0.73053 0.3387,-0.90577 0.4793,-0.27688 1.0459,-0.33765 1.5771,-0.46093 2.6224,-0.49035 5.2647,-0.86355 7.9013,-1.26659 5.4579,-0.81099 10.9162,-1.62152 16.3806,-2.38682 1.3301,-0.1695 2.6574,-0.38548 3.9977,-0.4548 0.385,-0.0255 0.8684,0.0331 1.0547,0.42276 0.075,0.14184 0.08,0.3139 0.056,0.47005 z m -3.2674,1.78447 c -2.3117,0.20865 -4.6086,0.55335 -6.9069,0.87352 -4.6081,0.67189 -9.2301,1.342 -13.8359,2.06385 -1.2695,0.21425 -2.5496,0.38941 -3.7973,0.71248 -0.223,-9.9e-4 -0.043,0.17942 0,0.28783 0.8424,1.32137 1.7841,2.57639 2.704,3.84419 1.1148,1.53887 2.2938,3.02973 3.3852,4.58532 0.086,0.13157 0.1762,0.29406 0.1896,0.44241 -0.2016,0.46017 -0.5978,0.79181 -0.9102,1.17447 -1.7718,1.97985 -3.6047,3.90871 -5.5771,5.69089 -5.2279,4.75593 -11.1711,8.73766 -17.6071,11.66717 -6.1802,2.81961 -12.7693,4.76661 -19.5081,5.65104 -3.7736,0.47825 -7.5783,0.71299 -11.3819,0.71608 -1.4853,-0.007 -2.9721,-0.05 -4.4502,-0.20252 -0.1882,0.034 -0.3488,0.0701 -0.064,0.0954 2.144,0.3858 4.325,0.68678 6.4965,0.99154 2.3687,0.32141 4.741,0.6292 7.1273,0.78638 1.3681,0.10794 2.7428,0.1095 4.1115,0.0105 0.8679,-0.0532 1.7121,-0.121 2.5837,-0.20244 0.5016,-0.0504 1.0568,-0.10878 1.578,-0.17086 4.7888,-0.56281 9.5177,-1.68838 14.0125,-3.44162 4.0351,-1.5705 7.9039,-3.56369 11.5473,-5.90184 4.4906,-2.8863 8.598,-6.36157 12.2088,-10.29215 0.7054,-0.75248 1.412,-1.50985 2.2238,-2.15032 0.1167,-0.0437 0.255,-0.33333 0.3559,-0.19572 1.6368,1.92779 3.2077,3.90972 4.7869,5.88288 0.5079,0.62487 1.0143,1.25215 1.5596,1.84515 1.1073,-2.78823 2.153,-5.60408 3.2147,-8.40516 1.815,-4.83043 3.6246,-9.653 5.3863,-14.50296 0.2152,-0.61747 0.4545,-1.22734 0.6316,-1.85725 -0.022,-0.003 -0.046,0.004 -0.068,0.002 z"
       inkscape:export-filename="arrow-curved.svg"
       inkscape:export-xdpi="96"
       inkscape:export-ydpi="96"
       inkscape:label="arrow-curved" /></g></svg>
