<?xml version="1.0" encoding="UTF-8" standalone="no"?>
<!-- Created with Inkscape (http://www.inkscape.org/) -->

<svg
   width="190.3864mm"
   height="136.88181mm"
   viewBox="0 0 190.3864 136.88181"
   version="1.1"
   id="svg1"
   xml:space="preserve"
   inkscape:export-filename="Documents/inkscape/checklist.svg"
   inkscape:export-xdpi="96"
   inkscape:export-ydpi="96"
   sodipodi:docname="icons.svg"
   inkscape:version="1.4.2 (ebf0e940, 2025-05-08)"
   inkscape:export-batch-path="Documents/inkscape/rvn-diagram"
   inkscape:export-batch-name="rvn"
   xmlns:inkscape="http://www.inkscape.org/namespaces/inkscape"
   xmlns:sodipodi="http://sodipodi.sourceforge.net/DTD/sodipodi-0.dtd"
   xmlns="http://www.w3.org/2000/svg"
   xmlns:svg="http://www.w3.org/2000/svg"><sodipodi:namedview
     id="namedview1"
     pagecolor="#ffffff"
     bordercolor="#000000"
     borderopacity="0.25"
     inkscape:showpageshadow="2"
     inkscape:pageopacity="0.0"
     inkscape:pagecheckerboard="0"
     inkscape:deskcolor="#d1d1d1"
     inkscape:document-units="mm"
     inkscape:zoom="0.30609919"
     inkscape:cx="4892.205"
     inkscape:cy="589.67813"
     inkscape:window-width="1512"
     inkscape:window-height="916"
     inkscape:window-x="0"
     inkscape:window-y="38"
     inkscape:window-maximized="0"
     inkscape:current-layer="layer14"
     showgrid="true"
     inkscape:export-bgcolor="#cdcdcdff"><inkscape:grid
       id="grid49"
       units="mm"
       originx="-2332.9957"
       originy="-7.4261785"
       spacingx="0.99999998"
       spacingy="1"
       empcolor="#0099e5"
       empopacity="0.30196078"
       color="#0099e5"
       opacity="0.14901961"
       empspacing="5"
       enabled="true"
       visible="true" /><inkscape:page
       x="0"
       y="0"
       width="190.3864"
       height="136.88181"
       id="page1"
       margin="0"
       bleed="0" /></sodipodi:namedview><defs
     id="defs1" /><g
     inkscape:groupmode="layer"
     id="layer14"
     inkscape:label="diagram"
     style="display:inline"
     transform="translate(-2332.9956,-7.4261784)"><path
       id="rect72-4-3-8-0-7-5"
       style="display:inline;fill:#1a1a1a;fill-opacity:1;stroke-width:0.455414"
       d="m 2440.1916,7.4321045 c -7.9424,-0.1722113 -18.2548,3.4269555 -24.1892,8.4413455 -5.7972,4.898602 -13.1966,13.299202 -10.9342,21.180102 1.0204,3.55464 4.6822,8.481737 9.0578,9.565308 9.9719,2.469328 14.5642,-1.179939 22.3304,-10.136849 5.2789,-5.589681 9.0063,-14.858018 9.6351,-23.960295 0.3281,-4.7480199 0.082,-4.9598728 -5.8999,-5.0896115 z m -9.7012,8.8997155 c 2.8815,0.0072 6.2054,2.908744 5.3098,6.694165 -1.2601,5.325926 -6.8277,7.424643 -10.8108,3.342948 -4.3221,-4.428916 1.2658,-10.047217 5.501,-10.037113 z m -29.4907,3.975984 c -1.4676,-0.04425 -2.4054,0.416976 -3.7682,1.877922 -3.1064,3.330211 -12.2929,10.189543 -8.9623,11.540898 3.4429,1.396911 5.5447,1.79893 8.9535,3.10937 0.7765,0.298548 2.1515,-0.168973 3.1279,-0.597379 1.1196,-0.491276 3.2872,-0.817655 3.0846,-2.277897 -1.0082,-7.263646 6.4164,-12.191973 4.5083,-12.498979 -3.4795,-0.559869 -5.4763,-1.109683 -6.9438,-1.153935 z m 1.4113,17.472319 c -0.8415,-0.03863 -4.362,3.033863 -5.7035,4.776453 -2.5363,3.294598 -2.9864,5.076431 -0.6258,4.172871 2.7716,-1.060876 3.6932,-1.602545 0.5947,4.444174 -1.6741,3.266832 -0.506,4.059963 3.2996,3.079915 3.573,-0.920071 6.0898,-2.402096 3.7501,0.785482 -2.3831,3.189057 -0.3299,2.601946 2.1017,1.605586 3.0799,-0.955803 7.8287,-5.579507 8.3246,-6.523116 0.4591,-0.873679 -1.8654,-0.673266 -3.8148,-1.733744 -2.7061,-1.472119 -6.0804,-5.116041 -6.9753,-7.534424 -0.4855,-1.312109 -0.9513,-3.073197 -0.9513,-3.073197 z m 29.7971,5.566068 c -1.1811,-0.02264 -5.6827,5.8021 -12.3506,5.186247 -1.5051,-0.139008 -1.753,1.984869 -2.2118,3.094902 -0.4002,0.968005 -0.8244,2.325735 -0.4873,3.070097 1.4797,3.26734 1.9752,5.298208 3.545,8.595341 1.5185,3.189574 8.1833,-6.031216 11.4732,-9.18962 2.8864,-2.771152 1.7403,-3.728904 0.3142,-10.461377 -0.043,-0.201914 -0.1376,-0.292809 -0.2827,-0.29559 z m 66.9386,15.813505 c -0.165,-0.0063 -0.3301,3.66e-4 -0.494,0.02067 v 5.17e-4 c -17.4262,0.005 -34.853,7.17e-4 -52.2795,0.0021 -2.1235,0.9749 -4.1821,2.52783 -4.9645,4.81831 -0.3619,6.72226 -0.2351,13.457942 -0.3054,20.186882 -0.058,16.530605 -0.079,33.062235 0.059,49.592315 0.065,1.90515 -0.031,3.84949 0.3731,5.71904 0.4651,1.46135 1.5312,2.67432 2.9042,3.34915 1.185,0.74238 2.573,1.17625 3.9781,1.03972 13.8645,0.32234 27.7339,0.24283 41.601,0.22635 3.413,-0.0515 6.7968,-0.0233 10.1725,-0.45941 2.1623,-0.42312 3.7517,-2.24104 4.6452,-4.15788 0.6108,-1.48512 0.4191,-3.13218 0.5499,-4.69894 0.01,-1.17629 0.086,-2.373 -0.029,-3.53725 -0.3791,-0.80488 -1.8524,-1.2263 -2.3239,-0.32401 -0.8348,2.83446 0.069,5.90778 -0.9084,8.70644 -0.8544,1.64014 -2.9123,1.83634 -4.5579,1.90273 -7.054,0.40515 -14.1234,0.20201 -21.1847,0.26768 -9.9126,0.002 -19.8251,0.004 -29.7378,0.005 -0.9339,-0.86229 -1.8663,-1.72623 -2.8008,-2.58796 0.016,-23.452 -0.064,-46.904456 0.11,-70.355906 0.043,-1.71228 0.073,-3.460342 0.4812,-5.126302 0.3614,-0.87795 1.1199,-1.492021 1.7037,-2.214851 17.6163,-0.0389 35.234,-0.238646 52.8495,-0.02946 1.5421,0.10437 2.805,1.339107 3.1652,2.808097 0.7545,2.14773 0.2445,4.470897 0.6496,6.666777 0.4161,0.96644 2.2671,1.027546 2.3337,-0.197404 0.4492,-2.14955 0.3165,-4.391727 0.01,-6.546887 -0.6198,-2.2233 -2.5881,-3.719034 -4.5884,-4.658114 -0.4236,-0.260047 -0.9128,-0.398663 -1.4076,-0.417546 z m -115.888,0.269751 a 7.3800712,7.1611867 0 0 0 -7.3799,7.160804 7.3800712,7.1611867 0 0 0 4.5774,6.624918 v 3.523299 h -33.2915 c -7.8501,0 -14.1691,5.56862 -14.1691,12.48606 v 42.597402 c 0,6.91745 6.319,12.48606 14.1691,12.48606 h 71.8561 c 7.8501,0 14.1687,-5.56862 14.1687,-12.48606 V 89.224528 c 0,-6.91744 -6.3186,-12.48606 -14.1687,-12.48606 h -34.2366 v -3.14141 a 7.3800712,7.1611867 0 0 0 5.8544,-7.006807 7.3800712,7.1611867 0 0 0 -7.3799,-7.160804 z m 83.3535,16.959689 c -0.5809,0.0153 -1.1618,0.03516 -1.7425,0.05116 -1.213,-0.36945 -2.273,1.7699 -2.375,4.65398 -0.2604,2.31801 0.995,2.24205 1.5704,2.98018 2.4472,1.64188 5.0477,1.154362 7.5391,0.542602 0.9215,-0.68462 1.9512,-3.813731 1.3265,-5.969661 -1.8483,-2.90114 -4.22,-2.01101 -6.3185,-2.258261 z m 0.2114,2.304769 c 0.052,-0.0041 0.064,0.101883 0.1183,0.118855 0.078,0.0249 0.1653,0 0.2476,0 h 1.7291 l 0.3979,-0.0078 c 0.044,-9.3e-4 0.036,-0.110201 0.063,-0.110071 l 0.1003,5.17e-4 c 0.1302,-0.0511 0.369,2.816288 0.1803,3.537768 v 5.17e-4 c -0.043,0.16555 0.079,0.437138 0,0.589628 l 5e-4,5.17e-4 v 5.17e-4 h -5e-4 c -0.043,0.0464 -0.8094,0.339023 -0.8641,0.352433 -0.3417,0.0817 -2.8706,0.03794 -2.9657,-0.236161 -0.091,-0.26495 0,-0.796184 0,-1.061434 v -2.830835 c 0.3294,-0.11789 0.6457,-0.280687 0.9891,-0.353467 0,-3.69e-4 0,-9e-4 0.01,-0.001 z m 36.3895,0.502295 c -7.0221,-0.003 -14.0498,-0.07856 -21.0664,0.186551 -1.598,0.22149 -3.4368,-0.207248 -4.8447,0.569992 -1.0468,0.63818 -0.4686,1.966298 0.7824,2.106848 10.4191,0.32496 20.8659,0.192561 31.2958,0.149861 2.0741,-0.15194 4.2527,0.184677 6.2461,-0.387573 1.3791,-0.29668 0.8744,-1.769165 -0.1742,-2.126485 -4.046,-0.57269 -8.1137,-0.373004 -12.239,-0.499194 z m -34.2269,10.497033 c -0.2286,-0.0083 -0.4896,-0.0014 -0.7891,0.02429 -2.9805,0.08054 -5.1909,0.916591 -4.809,1.873271 -0.016,0.45804 -0.036,0.916573 -0.052,1.374593 h -5e-4 c 0.2555,1.65528 -0.6649,3.525835 2.3332,4.983675 2.2281,0.49277 5.4612,-0.319071 6.1686,-1.045931 0.6323,-1.96513 1.1366,-4.016674 -0.5601,-5.946924 -0.6675,-0.397171 -0.6907,-1.204868 -2.2909,-1.262972 z m -2.3719,2.332674 c 0.1127,-2.95e-4 0.2237,0.0066 0.3312,0.02481 0.8643,-0.0119 2.4477,-0.0187 2.4707,0 0.033,0.02625 0,1.738425 0,1.949235 0,0.11379 0.016,1.157638 0,1.169438 -0.03,0.0225 -0.095,-0.0238 -0.1235,0 -0.058,0.04622 0.059,0.147903 0,0.194303 -0.058,0.0464 -0.1745,-0.0287 -0.2475,0 -0.1482,0.05876 -0.2227,0.234206 -0.37,0.293006 -0.073,0.02876 -0.4541,0.161803 -0.4951,0.194303 -0.028,0.0224 0.03,0.07517 0,0.09767 -0.066,0.0512 -1.0506,0.0238 -1.1116,0 -0.052,-0.0199 -0.072,-0.07767 -0.1235,-0.09767 -0.1297,-0.0513 -0.524,-0.02387 -0.618,-0.09767 -0.029,-0.0225 0.012,-0.177751 -0.1235,-0.09715 -0.052,-0.04125 -0.086,-0.233172 -0.1235,-0.291972 -0.1637,-0.25809 -0.3349,-0.529354 -0.4941,-0.780314 -0.1161,-0.1818 0.1161,-0.499672 0,-0.681612 -0.097,-0.15304 -0.1348,-0.329327 -0.1348,-0.513147 v -0.0031 c 0,-0.18394 0.016,-0.375949 0.016,-0.559139 0,-0.20043 0.021,-0.22558 0.1235,-0.38964 0.018,-0.02514 -0.019,-0.262722 0,-0.290422 v -10e-4 l 5e-4,-5.17e-4 v 0 -5.17e-4 c 0.331,-0.04882 0.6851,-0.11797 1.0232,-0.118856 z m 55.5475,0.75551 c -0.079,-0.0029 -0.1606,0.01824 -0.2392,0.03256 v -5.17e-4 c -14.7395,0.024 -29.4831,0.0038 -44.2242,0.01034 -0.5965,0.5002 -1.4516,1.278972 -0.9023,2.163692 0.875,0.68768 2.1118,0.478172 3.1528,0.574642 13.3407,0.48469 26.7015,0.506068 40.0441,0.112138 1.038,-0.15714 2.3653,0.194896 3.1574,-0.689364 0.6486,-0.83313 -0.2046,-1.728326 -0.8491,-2.166276 -0.045,-0.02535 -0.092,-0.03549 -0.1395,-0.03721 z m -177.7385,5.558317 h 33.3447 a 18.124777,21.698668 0 0 1 1.4521,8.510596 18.124777,21.698668 0 0 1 -0.021,1.05419 h -36.2066 a 18.124777,21.698668 0 0 1 -0.022,-1.05419 18.124777,21.698668 0 0 1 1.4526,-8.510596 z m 43.5736,0 h 33.3442 a 18.124777,21.698668 0 0 1 1.4526,8.510596 18.124777,21.698668 0 0 1 -0.021,1.05419 h -36.2065 a 18.124777,21.698668 0 0 1 -0.022,-1.05419 18.124777,21.698668 0 0 1 1.4526,-8.510596 z m 79.8039,3.146066 c -0.5502,-0.0105 -1.098,0.0108 -1.6345,0.015 -1.448,-0.085 -3.6657,0.89948 -3.6479,5.39244 0.019,2.62699 1.1614,2.95122 1.9968,2.87837 2.5499,0.47499 5.2219,1.35295 7.7075,-0.31936 0.7365,-1.14417 1.6043,-4.59001 0.3556,-5.64255 -1.4554,-1.9687 -3.127,-2.29182 -4.7775,-2.32388 z m 1.2562,2.73058 c 0.1312,6.7e-4 0.3441,0.0624 0.3638,0.0899 v 5.2e-4 c 2e-4,2.4e-4 5e-4,0.001 6e-4,0.002 0.028,0.15243 0.2196,1.11403 0.1214,1.39682 -0.382,0.32846 0.1062,1.66579 -0.371,1.88722 v 0.001 h -6e-4 v 5.2e-4 c -0.051,0.032 -0.5518,-0.003 -0.6149,-0.003 -0.1174,0 -0.6672,-0.0713 -0.7416,0 -0.5435,0.53164 -2.2166,0.13047 -2.2231,0.11782 -0.078,-0.14882 -0.206,-1.57259 -0.1235,-1.65158 0.1304,-0.33389 0.391,-0.70331 0.494,-1.06143 0.099,-0.28326 0.3687,-0.35042 0.4941,-0.58963 0.1386,-0.32176 0.769,-0.14178 1.112,-0.11834 h 1.3591 c 0.041,-0.0326 0.069,-0.062 0.078,-0.0682 0.015,-0.003 0.033,-0.004 0.052,-0.004 z m 19.0128,0.56327 c -3.5594,0.12619 -7.069,-0.0735 -10.56,0.4992 -0.9047,0.35732 -1.3403,1.8298 -0.1504,2.12648 1.72,0.57225 3.5997,0.23563 5.3893,0.38757 8.9992,0.0427 18.0128,0.1751 27.0025,-0.14986 1.0794,-0.14055 1.5782,-1.46867 0.6749,-2.10685 -1.2147,-0.77724 -2.8013,-0.34849 -4.1801,-0.56999 -6.054,-0.26511 -12.1174,-0.18955 -18.1762,-0.18655 z m -23.4528,9.53999 c -1.078,0.0394 -2.0222,1.90531 -2.1079,4.51858 -0.2785,2.37106 1.0679,2.27803 1.663,3.02204 2.3801,1.55578 4.9673,0.95895 7.3442,0.58498 1.3711,-0.53732 2.3116,-5.7404 0.7871,-7.31532 -2.393,-1.1506 -4.9127,-0.69964 -7.3479,-0.76222 -0.1136,-0.0362 -0.2272,-0.0522 -0.3385,-0.0481 z m 4.5532,2.61172 c 0.6852,0.0321 0.7809,-0.14292 0.9886,0.47233 0.1689,0.49996 0.049,1.03854 -0.1235,1.53272 -0.1,0.28539 0.1285,1.52854 0,1.65106 -0.6814,0.0996 -1.2397,-0.21937 -1.8537,-0.23564 -0.9075,0 -1.4536,0.21962 -2.314,0.0145 -0.7174,0.0699 -0.9046,-0.51855 -0.6517,-1.07539 0.021,-0.468 0.2201,-0.6489 0.1241,-1.17926 -0.058,-0.46425 0.068,-0.765 0.2966,-1.02112 0.284,-0.12685 2.3281,-0.15917 3.5336,-0.15917 z m 49.1009,0.18035 -0.1121,0.0202 -0.071,0.0129 c -12.6581,0.058 -25.3196,-0.0597 -37.9775,0.094 -1.0625,0.10708 -2.2081,0.0249 -3.2024,0.45165 -0.6883,0.75111 -0.1333,2.23589 0.8418,2.05569 5.7149,0.3843 11.4466,0.41087 17.1706,0.49351 7.4221,0.031 14.8491,0.0502 22.2668,-0.26458 0.8485,-0.0701 2.1717,-0.065 2.2547,-1.37408 -0.1013,-0.65198 -0.6299,-1.29299 -1.1705,-1.48932 z" /></g></svg>
