<?xml version="1.0" encoding="UTF-8" standalone="no"?>
<!-- Created with Inkscape (http://www.inkscape.org/) -->

<svg
   width="69.610718mm"
   height="41.738541mm"
   viewBox="0 0 69.610718 41.738541"
   version="1.1"
   id="svg1"
   xml:space="preserve"
   xmlns="http://www.w3.org/2000/svg"
   xmlns:svg="http://www.w3.org/2000/svg"><defs
     id="defs1" /><g
     id="layer21"
     transform="translate(258.74574,458.2143)"><path
       style="fill:#000000"
       d="m -219.18782,-420.90009 -5.30192,0.1721 -5.30191,0.17209 c -2.61884,-0.0736 -5.22144,-0.30636 -7.82522,-0.57695 l -0.5468,0.91855 c -1.36369,2.59298 -4.31575,3.73857 -4.31575,3.73857 l -5.04052,-0.0254 c 0,0 -2.959,-0.80721 -3.67969,-2.50726 -0.25444,-2.14105 1.48356,-3.51536 2.79506,-5.01187 -3.65091,-1.28448 -5.12539,1.08832 -8.31594,-1.66014 0,0 -0.18597,0.045 -0.8205,-0.80466 -0.63454,-0.84965 -1.02181,-0.68217 4.30859,-3.91294 3.40564,-2.22207 7.69969,-2.8775 11.59955,-3.70198 9.81894,-1.95735 21.48044,-3.26888 29.26752,-9.31797 1.26144,-1.90729 2.63157,-2.8614 3.56921,-5.73254 1.53191,-4.69078 1.97132,-5.54877 4.37409,-7.76206 3.7034,-2.04749 5.41855,-1.56501 9.69216,0.64606 4.33295,3.87877 4.99013,4.57866 5.59488,10.0957 -0.29305,2.98694 -1.11248,5.96186 -3.91,7.45372 -2.61314,1.58005 -5.31286,0.84932 -7.9023,-0.30667 l -0.43406,0.18298 c -2.76085,3.06941 -6.08331,1.89515 -7.52582,5.69462 l -0.46943,1.19194 c -0.77142,1.95873 -0.74546,2.89046 0.88482,6.20681 l 1.49116,2.12051 1.49116,2.12051 c 0.96797,2.64179 0.2393,3.91629 -2.79401,4.9754 l -3.98345,4.6e-4 c -2.87447,-0.37818 -3.18234,-3.74068 -6.90088,-4.36952 z m 23.38159,-28.73301 c 0.073,-1.79796 -3.08368,-2.5166 -3.16432,-0.17818 0.0131,0.68039 0.66138,0.64587 1.33696,0.67478 0.67559,0.0289 1.89519,0.27488 1.82736,-0.4966 z m -53.79873,-2.35099 c 7.45966,-3.80596 17.32118,-6.19608 22.3878,-4.89493 3.46884,0.0393 11.90781,1.29176 14.61,7.60148 0.5387,1.25788 0.52885,2.85537 -0.79829,4.16246 -3.08702,3.04043 -5.99041,3.67938 -9.84726,5.3693 -4.73272,2.0737 -27.06284,5.53894 -28.5519,7.22699 -2.10737,1.12769 -3.65568,2.244 -4.31845,1.38536 -6.6709,-7.65429 0.82155,-15.95087 6.5181,-20.85066 z"
       id="path167" /></g></svg>
