<svg width="159" height="40" viewBox="0 0 159 40" fill="none" xmlns="http://www.w3.org/2000/svg">
<path d="M56.408 21.6L54.904 23.168V26H52.328V14.8H54.904V20.032L59.864 14.8H62.744L58.104 19.792L63.016 26H59.992L56.408 21.6ZM71.3078 26L69.1478 22.88H69.0198H66.7638V26H64.1718V14.8H69.0198C70.0118 14.8 70.8704 14.9653 71.5958 15.296C72.3318 15.6267 72.8971 16.096 73.2918 16.704C73.6864 17.312 73.8838 18.032 73.8838 18.864C73.8838 19.696 73.6811 20.416 73.2758 21.024C72.8811 21.6213 72.3158 22.08 71.5798 22.4L74.0918 26H71.3078ZM71.2598 18.864C71.2598 18.2347 71.0571 17.7547 70.6518 17.424C70.2464 17.0827 69.6544 16.912 68.8758 16.912H66.7638V20.816H68.8758C69.6544 20.816 70.2464 20.6453 70.6518 20.304C71.0571 19.9627 71.2598 19.4827 71.2598 18.864ZM80.9134 26.192C79.3134 26.192 78.0654 25.7493 77.1694 24.864C76.284 23.9787 75.8414 22.7147 75.8414 21.072V14.8H78.4334V20.976C78.4334 22.9813 79.2654 23.984 80.9294 23.984C81.74 23.984 82.3587 23.744 82.7854 23.264C83.212 22.7733 83.4254 22.0107 83.4254 20.976V14.8H85.9854V21.072C85.9854 22.7147 85.5374 23.9787 84.6414 24.864C83.756 25.7493 82.5134 26.192 80.9134 26.192ZM98.7388 26L98.7228 19.28L95.4268 24.816H94.2588L90.9788 19.424V26H88.5468V14.8H90.6908L94.8828 21.76L99.0108 14.8H101.139L101.171 26H98.7388ZM120.694 14.8L117.03 26H114.246L111.782 18.416L109.238 26H106.47L102.79 14.8H105.478L108.006 22.672L110.646 14.8H113.046L115.606 22.736L118.214 14.8H120.694ZM129.142 23.6H123.942L122.95 26H120.293L125.286 14.8H127.846L132.854 26H130.134L129.142 23.6ZM128.326 21.632L126.55 17.344L124.774 21.632H128.326ZM141.152 26L138.992 22.88H138.864H136.608V26H134.016V14.8H138.864C139.856 14.8 140.714 14.9653 141.44 15.296C142.176 15.6267 142.741 16.096 143.136 16.704C143.53 17.312 143.728 18.032 143.728 18.864C143.728 19.696 143.525 20.416 143.12 21.024C142.725 21.6213 142.16 22.08 141.424 22.4L143.936 26H141.152ZM141.104 18.864C141.104 18.2347 140.901 17.7547 140.496 17.424C140.09 17.0827 139.498 16.912 138.72 16.912H136.608V20.816H138.72C139.498 20.816 140.09 20.6453 140.496 20.304C140.901 19.9627 141.104 19.4827 141.104 18.864ZM154.453 23.92V26H145.781V14.8H154.245V16.88H148.357V19.312H153.557V21.328H148.357V23.92H154.453Z" fill="#fff"/>
<mask id="mask0_369_3018" style="mask-type:alpha" maskUnits="userSpaceOnUse" x="0" y="0" width="40" height="40">
<path fill-rule="evenodd" clip-rule="evenodd" d="M0 0H39.9992V40H0V0Z" fill="white"/>
</mask>
<g mask="url(#mask0_369_3018)">
<path fill-rule="evenodd" clip-rule="evenodd" d="M23.2986 33.1377C23.7308 33.0284 24.1617 32.897 24.5896 32.7429C26.8579 31.9253 28.7696 30.5681 30.2329 28.8717C30.6084 28.4365 30.4125 27.7612 29.8635 27.5815L20.3977 24.4834C19.9118 24.3244 19.4548 24.7906 19.63 25.2669L22.3355 32.6279C22.4783 33.016 22.8944 33.2399 23.2986 33.1377" fill="#fff"/>
<path fill-rule="evenodd" clip-rule="evenodd" d="M35.5993 19.8905C35.5993 24.0263 33.973 27.9146 31.0195 30.839C28.0662 33.7635 24.1395 35.3741 19.9627 35.3741C15.786 35.3741 11.8594 33.7635 8.90597 30.839C5.95251 27.9146 4.32616 24.0263 4.32616 19.8905C4.32616 15.7547 5.95251 11.8663 8.90597 8.94198C11.8594 6.01745 15.786 4.40703 19.9627 4.40703C24.1395 4.40703 28.0662 6.01745 31.0195 8.94198C33.973 11.8663 35.5993 15.7547 35.5993 19.8905ZM39.7803 22.8441L37.1914 20.8291C37.2084 20.5179 37.2177 20.2051 37.2177 19.8909C37.2177 19.2451 37.1804 18.6051 37.1096 17.9726L39.5303 15.8016C39.6951 15.7024 39.7663 15.5017 39.7002 15.3223L38.1281 11.0451C38.0622 10.8656 37.8775 10.7572 37.6867 10.786L34.4927 10.6664C33.9542 9.83818 33.3394 9.05144 32.6526 8.31449L33.3044 5.23407C33.3787 5.05785 33.3173 4.85413 33.1572 4.74738L29.3464 2.20215C29.1866 2.09524 28.9726 2.11509 28.8356 2.2495L26.2454 3.96845C25.2843 3.59697 24.288 3.31172 23.2668 3.11662L21.9944 0.308598C21.9501 0.122611 21.7793 -0.00642428 21.5866 0.000247162L16.9926 0.159223C16.7999 0.165894 16.6387 0.30632 16.6075 0.494747L15.5415 3.36884C14.5287 3.63276 13.5447 3.98668 12.6005 4.42813L9.9208 2.90623C9.77438 2.78175 9.55977 2.77687 9.40793 2.89435L5.78566 5.69668C5.63366 5.81433 5.58649 6.02163 5.67309 6.19232L6.52579 9.16973C5.8744 9.96705 5.30139 10.8143 4.81054 11.702L1.69489 12.0352C1.50263 12.0196 1.32614 12.1405 1.2729 12.324L0.00592966 16.6993C-0.0471481 16.8831 0.0378092 17.0783 0.209203 17.1659L2.72522 19.124C2.71388 19.3787 2.70731 19.6343 2.70731 19.8909C2.70731 20.6248 2.75431 21.3513 2.84584 22.0677L0.459145 24.2083C0.294325 24.3076 0.223171 24.5082 0.289066 24.6877L1.86135 28.9647C1.92725 29.1442 2.11195 29.2527 2.30257 29.2238L5.58452 29.3468C6.11021 30.127 6.70507 30.8687 7.36435 31.5651L6.68502 34.7759C6.61075 34.9519 6.67221 35.1556 6.83226 35.2625L10.643 37.8078C10.8029 37.9145 11.0167 37.8948 11.1539 37.7604L13.9402 35.911C14.8072 36.2301 15.701 36.4803 16.6155 36.6574L17.9949 39.7013C18.0394 39.8872 18.2101 40.0162 18.4029 40.0095L22.9968 39.8507C23.1896 39.844 23.3506 39.7034 23.382 39.515L24.5484 36.37C25.4369 36.129 26.3016 35.8173 27.1369 35.4388L30.0687 37.1035C30.2149 37.2282 30.4295 37.2331 30.5815 37.1156L34.2038 34.3133C34.3558 34.1956 34.4028 33.9881 34.3164 33.8176L33.3986 30.613C33.989 29.8904 34.5157 29.1273 34.9745 28.3299L38.2946 27.9747C38.4867 27.9904 38.6633 27.8693 38.7164 27.6859L39.9835 23.3104C40.0366 23.1269 39.9517 22.9316 39.7803 22.8441V22.8441Z" fill="#fff"/>
<path fill-rule="evenodd" clip-rule="evenodd" d="M34.0482 20.6066C34.1559 18.8124 33.8977 16.968 33.223 15.1716C32.3812 12.9305 30.9943 11.0351 29.2612 9.5722C28.8364 9.21375 28.1745 9.34935 27.9343 9.84306L24.109 17.7001C23.9468 18.0334 24.1199 18.4291 24.4799 18.5478L32.9254 21.3343C33.4554 21.509 34.0156 21.1482 34.0482 20.6066" fill="#fff"/>
<path fill-rule="evenodd" clip-rule="evenodd" d="M15.7154 7.20126C15.2899 7.36031 14.877 7.53932 14.4772 7.73662C14.1033 7.92133 13.9309 8.37112 14.0729 8.77125L16.6224 15.9635C16.8041 16.4762 17.4935 16.5209 17.7366 16.0357L21.9517 7.61934C22.2161 7.09188 21.8752 6.45033 21.2989 6.4062C19.4593 6.26494 17.5618 6.51123 15.7154 7.20126" fill="#fff"/>
<path fill-rule="evenodd" clip-rule="evenodd" d="M7.14156 14.8721C5.78118 17.929 5.58202 21.466 6.86426 24.8341C8.14668 28.2021 10.6776 30.7891 13.7751 32.295C14.4694 32.6327 15.2378 31.9794 14.9714 31.2796L8.74069 14.9149C8.47428 14.2152 7.44635 14.1868 7.14156 14.8721" fill="#fff"/>
</g>
</svg>
