
            <svg xmlns="http://www.w3.org/2000/svg">
                <filter id="grayscale">
                    <feColorMatrix type="saturate" values="0"/>
                </filter>
                <g filter="url(#grayscale)">
                    <svg xmlns="http://www.w3.org/2000/svg" viewBox="20 107.61500000000001 535 359.76999725341796"> <g transform="rotate(0 287.5 258.5703304112944)"><svg xmlns="http://www.w3.org/2000/svg" xmlns:xlink="http://www.w3.org/1999/xlink" version="1.1" id="Layer_1" x="188.75" y="177.615" viewBox="1.100000023841858 180.60009765625 1998.9000244140625 1638.699951171875" xml:space="preserve" height="161.91066082258874" width="197.50000000000003" preserveAspectRatio="xMinYMin" enable-background="new 0 0 2000 2000" style="overflow: visible;"><path class="st0" d="M1502.5,884.4h-285.3l-82.1,115.6l82.1,115.6l499.5,703.7H2000l-499.4-703.7h1.8   c117.6,0,225.1-43.7,307.3-115.6c98.1-85.7,160.1-211.7,160.1-351.9c0-107.8-36.7-207.3-98.3-286.4   c-47.7-61.5-110.5-110.7-182.6-142.2c-57.1-25-120.2-38.9-186.5-38.9h-352.9L985.5,411.9L650.1,884.4L568,1000l82.1,115.6   l335.4,472.5l164.1,231.2h283.6L1269,1588.1l-335.4-472.5L851.6,1000l82.1-115.6L1269,411.9h233.4c16,0,31.6,1.6,46.7,4.7   c81.6,16.4,148,75,175.7,151.9c8.9,24.9,13.8,51.7,13.8,79.7C1738.7,778.4,1632.7,884.4,1502.5,884.4z" style="fill: #3AD0E6; fill-opacity: 1;"></path><polygon class="st0" points="366.8,1115.6 284.7,1000 366.8,884.4 702.1,411.9 866.2,180.7 582.7,180.7 418.6,411.9 83.2,884.4    1.1,1000 83.2,1115.6 418.6,1588.1 582.7,1819.3 866.2,1819.3 702.1,1588.1  " style="fill: #FFFFFF; fill-opacity: 1;"></polygon></svg></g> <g transform="rotate(0 287.5 378.444998626709)"><svg xmlns="http://www.w3.org/2000/svg" y="359.505" viewBox="5.679999828338623 14.510000228881836 395 37.87999725341797" x="90" height="37.87999725341797" width="395" style="overflow: visible;"><g fill="#ffffff" fill-opacity="1" style=""><path d="M11.10 52.39L5.68 52.39L5.68 14.51L20.46 14.51Q25.44 14.51 28.96 16.07Q32.47 17.64 34.37 20.62Q36.26 23.60 36.26 27.71L36.26 27.71Q36.26 31.82 34.37 34.77Q32.47 37.72 28.96 39.29Q25.44 40.86 20.46 40.86L20.46 40.86L8.66 40.86L11.10 38.37L11.10 52.39ZM36.91 52.39L31.01 52.39L21.38 38.64L27.17 38.64L36.91 52.39ZM11.10 16.51L11.10 38.91L8.66 36.26L20.30 36.26Q25.49 36.26 28.17 34.02Q30.85 31.77 30.85 27.71L30.85 27.71Q30.85 23.65 28.17 21.43Q25.49 19.21 20.30 19.21L20.30 19.21L8.66 19.21L11.10 16.51ZM67.28 35.45L67.28 30.85L86.76 30.85L86.76 35.45L67.28 35.45ZM67.76 19.21L67.76 47.68L89.84 47.68L89.84 52.39L62.35 52.39L62.35 14.51L89.09 14.51L89.09 19.21L67.76 19.21ZM132.22 52.39L126.87 52.39L110.20 14.51L116.04 14.51L131.36 49.47L128.00 49.47L143.43 14.51L148.84 14.51L132.22 52.39ZM171.63 52.39L166.05 52.39L183.21 14.51L188.57 14.51L205.78 52.39L200.09 52.39L184.78 17.54L186.94 17.54L171.63 52.39ZM197.71 42.92L173.36 42.92L174.82 38.59L196.14 38.59L197.71 42.92ZM234.14 52.39L228.73 52.39L228.73 14.51L233.16 14.51L258.22 45.63L255.90 45.63L255.90 14.51L261.31 14.51L261.31 52.39L256.87 52.39L231.81 21.27L234.14 21.27L234.14 52.39ZM295.41 52.39L289.99 52.39L289.99 14.51L295.41 14.51L295.41 52.39ZM336.97 52.39L331.61 52.39L331.61 19.21L318.62 19.21L318.62 14.51L349.96 14.51L349.96 19.21L336.97 19.21L336.97 52.39ZM378.11 35.45L378.11 30.85L397.59 30.85L397.59 35.45L378.11 35.45ZM378.59 19.21L378.59 47.68L400.68 47.68L400.68 52.39L373.18 52.39L373.18 14.51L399.92 14.51L399.92 19.21L378.59 19.21Z" transform="translate(0, 0)"></path></g></svg></g></svg>
                </g>
            </svg>
        